<svg xmlns="http://www.w3.org/2000/svg" width="128" height="128" viewBox="0 0 128 128"><defs><style>.cls-1{fill:#d4fdff;}.cls-2{fill:none;}.cls-3{fill:#ffc716;}.cls-4{fill:#d23b00;}.cls-5{fill:#e88300;}</style></defs><title>bomb</title><g id="bomb"><path class="cls-1" d="M44.52,45.24a3.41,3.41,0,0,0-2.66,0A31.35,31.35,0,0,0,24.43,62.67a3.41,3.41,0,0,0,0,2.66,3.19,3.19,0,0,0,1.95,1.78,4.53,4.53,0,0,0,1.25.36,3.1,3.1,0,0,0,3.2-2.14,26.86,26.86,0,0,1,5.34-8.18,23.24,23.24,0,0,1,8.18-5.33,3.51,3.51,0,0,0,1.95-2,3.44,3.44,0,0,0,0-2.67A3.76,3.76,0,0,0,44.52,45.24Z"/><path class="cls-2" d="M44.52,45.24a3.41,3.41,0,0,0-2.66,0A31.35,31.35,0,0,0,24.43,62.67a3.41,3.41,0,0,0,0,2.66,3.19,3.19,0,0,0,1.95,1.78,4.53,4.53,0,0,0,1.25.36,3.1,3.1,0,0,0,3.2-2.14,26.86,26.86,0,0,1,5.34-8.18,23.24,23.24,0,0,1,8.18-5.33,3.51,3.51,0,0,0,1.95-2,3.44,3.44,0,0,0,0-2.67A3.76,3.76,0,0,0,44.52,45.24Z"/><path class="cls-3" d="M95.75,24.6a1.59,1.59,0,0,0,1.24.54,1.61,1.61,0,0,0,1.25-.54,1.26,1.26,0,0,0,.53-1.06,1.64,1.64,0,0,0-.53-1.25l-5-5A1.64,1.64,0,0,0,92,16.78a1.83,1.83,0,0,0-1.78,1.78,1.59,1.59,0,0,0,.54,1.24Z"/><path class="cls-4" d="M104.46,25.32a1.61,1.61,0,0,0,1.25-.54l5-5a1.93,1.93,0,0,0,.53-1.24,1.81,1.81,0,0,0-1.78-1.78,1.62,1.62,0,0,0-1.24.53l-5,5a1.61,1.61,0,0,0-.54,1.25,1.85,1.85,0,0,0,1.78,1.78Z"/><path class="cls-5" d="M112.47,26a1.61,1.61,0,0,0-1.25-.54h-5.16a1.85,1.85,0,0,0-1.78,1.78,1.83,1.83,0,0,0,1.78,1.78h5.16A1.81,1.81,0,0,0,113,27.27,1.62,1.62,0,0,0,112.47,26Z"/><path class="cls-5" d="M100.73,15A1.81,1.81,0,0,0,99,16.78v5.16a1.83,1.83,0,0,0,1.78,1.78,1.85,1.85,0,0,0,1.78-1.78V16.78A1.83,1.83,0,0,0,100.73,15Z"/><path d="M97.7,27.81,84.36,41.15l-3.73-3.74a3.43,3.43,0,0,0-5,0L72.09,41a38.42,38.42,0,0,0-18.67-4.8,39.24,39.24,0,0,0-14.94,3A37.66,37.66,0,0,0,18,59.64a38.46,38.46,0,0,0,0,29.88A37.72,37.72,0,0,0,38.48,110a38.46,38.46,0,0,0,29.88,0A37.66,37.66,0,0,0,88.81,89.52a39.24,39.24,0,0,0,3-14.94A38.42,38.42,0,0,0,87,55.91l3.56-3.56a3.43,3.43,0,0,0,0-5l-3.74-3.73L100.19,30.3ZM46.3,49.86a3.51,3.51,0,0,1-1.95,2,23.24,23.24,0,0,0-8.18,5.33,26.86,26.86,0,0,0-5.34,8.18,3.1,3.1,0,0,1-3.2,2.14,4.53,4.53,0,0,1-1.25-.36,3.19,3.19,0,0,1-1.95-1.78,3.41,3.41,0,0,1,0-2.66A31.35,31.35,0,0,1,41.86,45.24a3.41,3.41,0,0,1,2.66,0,3.76,3.76,0,0,1,1.78,1.95A3.44,3.44,0,0,1,46.3,49.86Z"/><path class="cls-3" d="M105.71,29.76a1.64,1.64,0,0,0-1.25-.53A1.83,1.83,0,0,0,102.68,31a1.59,1.59,0,0,0,.54,1.24l5,5a1.9,1.9,0,0,0,1.24.54,1.92,1.92,0,0,0,1.25-.54,1.62,1.62,0,0,0,.53-1.24,1.64,1.64,0,0,0-.53-1.25Z"/></g></svg>
