<svg id="coin" xmlns="http://www.w3.org/2000/svg" width="128" height="128" viewBox="0 0 128 128"><defs><style>.cls-1{fill:#ffe695;}.cls-2{fill:#ffc72e;}.cls-3{fill:#f09f01;}.cls-4{fill:#ffad01;}.cls-5{fill:#fff4bf;}</style></defs><title>coin</title><g id="Layer_3" data-name="Layer 3"><circle class="cls-1" cx="64" cy="64" r="60"/><circle class="cls-2" cx="64" cy="64" r="58.5"/><circle class="cls-3" cx="64" cy="64" r="48.5"/><circle class="cls-4" cx="64" cy="64" r="47"/><path class="cls-5" d="M68.5,58.5v-12c2.59.59,5,1,7.5,3.5l5-6c-4-3.93-8.32-6.42-13-7V32H64v5c-21.5,3.5-17.5,25.5,0,30V80c-4.5-.67-8-3-11-6l-6,7a25.72,25.72,0,0,0,17,8v5h4V89C85.5,84.5,87.5,64.5,68.5,58.5Zm-5-2c-6-3-6-9,0-10Zm4,24v-12C74.3,72.27,74.71,76.26,67.5,80.5Z"/></g></svg>
