<svg xmlns="http://www.w3.org/2000/svg" width="128" height="128" viewBox="0 0 128 128"><defs><style>.cls-1{fill:#154978;}.cls-2{fill:#b7e0e8;}.cls-3{fill:#96c4d6;}.cls-4{fill:#246b99;}.cls-5{fill:#2f79a1;}.cls-6{fill:#9fd1e2;}.cls-7{fill:#69b0d3;}.cls-8{fill:#f9fcfd;}.cls-9{fill:#5297c3;}.cls-10{fill:#5ca6d2;}.cls-11{fill:#0a090a;}.cls-12{fill:#0f161f;}.cls-13{fill:#448ba7;}.cls-14{fill:#d0e5ec;}.cls-15{fill:#d1ecf8;}.cls-16{fill:#7abeea;}.cls-17{fill:#2d76ab;}</style></defs><title>diamond</title><g id="diamond"><polygon class="cls-1" points="16.76 23.63 28.14 17.31 45.2 23.63 28.14 37.54 16.76 23.63"/><polygon class="cls-2" points="81.85 23.63 63.53 37.54 45.2 23.63 63.53 17.31 81.85 23.63"/><polygon class="cls-3" points="63.53 37.54 81.85 23.63 86.28 37.54 63.53 37.54"/><polygon class="cls-4" points="63.84 110.53 73.95 89.99 122.62 37.54 63.84 110.53"/><polygon class="cls-5" points="110.92 23.32 99.23 37.54 122.62 37.54 110.92 23.32"/><polygon class="cls-6" points="81.85 23.63 86.28 37.54 99.23 37.54 81.85 23.63"/><polygon class="cls-7" points="63.53 17.31 99.23 17.31 81.85 23.63 63.53 17.31"/><polygon class="cls-8" points="110.92 23.32 99.23 17.31 81.85 23.63 99.23 37.54 110.92 23.32"/><polygon class="cls-9" points="86.28 37.54 73.95 89.99 99.23 37.54 86.28 37.54"/><polygon class="cls-10" points="63.53 37.54 73.95 89.99 86.28 37.54 63.53 37.54"/><polygon class="cls-11" points="63.84 110.53 53.41 89.99 5.38 37.54 63.84 110.53"/><polygon class="cls-12" points="16.76 23.63 28.14 37.54 5.38 37.54 16.76 23.63"/><polygon class="cls-13" points="45.2 23.63 40.77 37.54 28.14 37.54 45.2 23.63"/><polygon class="cls-9" points="63.53 37.54 45.2 23.63 40.77 37.54 63.53 37.54"/><polygon class="cls-7" points="63.53 17.31 28.14 17.31 45.2 23.63 63.53 17.31"/><polygon class="cls-7" points="40.77 37.54 53.41 89.99 28.14 37.54 40.77 37.54"/><polygon class="cls-14" points="63.53 37.54 53.41 89.99 40.77 37.54 63.53 37.54"/><polygon class="cls-15" points="74.27 89.36 99.23 37.54 122.62 37.54 74.27 89.36"/><polygon class="cls-16" points="63.53 37.54 73.95 89.99 63.84 110.53 53.41 89.99 63.53 37.54"/><polygon class="cls-17" points="28.14 37.54 5.38 37.54 53.41 89.99 28.14 37.54"/></g></svg>
