<svg xmlns="http://www.w3.org/2000/svg" width="1600" height="900" viewBox="0 0 1600 900"><defs><style>.cls-1{fill:#ee000d;}.cls-2{fill:#ffc716;}.cls-3{fill:#d23b00;}.cls-4{fill:#e88300;}.cls-5{fill:#d4fdff;}</style></defs><title>gameover</title><g id="gameover"><g id="Layer_10" data-name="Layer 10"><path class="cls-1" d="M585.7,262.58l-.15.45,15.66,11.7q-4.19,13-7.86,28.55t-7,34.2l3.16-1.12c1-.36,2.05-.74,3.08-1.12a1,1,0,0,1,0,.25,1,1,0,0,0,0,.24l15.65,11.64q1.71,39.12,1.11,67.11t-3.54,44.78c-3.36.16-6.77.3-10.21.42l-9.93.34-8.88.3q-4.11.14-7,.13a159,159,0,0,1-27.07,14.82,100,100,0,0,1-25,7q-11.34,1.63-26.91-3.09a40.59,40.59,0,0,1-12-6.38l-12.19-9.1a52,52,0,0,1-6.86-5,79.92,79.92,0,0,1-6.65-6.44,33.61,33.61,0,0,1-5.37-6.91,90.82,90.82,0,0,1-5.69-11q-2.15-7.53-3.49-12.94t-1.86-8.94a126.38,126.38,0,0,1,5-58.08,108.57,108.57,0,0,1,5-11.19A104.65,104.65,0,0,1,453.36,332,173.54,173.54,0,0,1,473,311.35q3.8-3.44,7.57-6.39t7.64-5.48q3-2.06,5.91-3.74t5.79-3.17q3.86-2.18,9.19-4.72T521,282.56q6.59-2.74,14.31-5.67t16.41-5.79Zm-31.55,16.49q-35.53,11.91-50,20.71-22.34,10.43-44.37,37.6a92.38,92.38,0,0,0-10.13,19.67A118.42,118.42,0,0,0,445,411.2q.9,6.23,5,20.1,5.37,12.27,8.91,14.8,9.57,10.53,18.59,13.39,13.94,4.2,23.27,2.84,23.19-3.07,50.8-21.88,11.49-.1,31.55-.9,4.59-26.34,1.68-92.73-10.62,3.65-42.12,17.52-17.31,6.18-17.09,7.69l.88,6.09q.47,3.24,1.38,23.71.54,3.74-14.79,9.41-15.75,2.28-17.75-11.47-1-11.29,3.73-24.46,8.49-16.89,23.46-24.63,20.31-11.76,34.89-13.87l3-.44q6.75-43.1,12.82-62.1ZM519.47,402.19l0-.14c0,.05,0,.08,0,.08s0,0,0,.07Zm6.58,61.56,2.1-.87c.68-.29,1.4-.6,2.15-.95-.75.35-1.47.65-2.16.92S526.75,463.41,526.05,463.75Zm9.73-4.44.82-.44a9,9,0,0,1,.88-.44l-.85.44Zm2-1c-.09,0-.15,0-.17.06a.37.37,0,0,1-.17.06.37.37,0,0,0,.17-.06S537.73,458.32,537.82,458.31Z"/><path class="cls-1" d="M708.78,225.8a1.09,1.09,0,0,0,.14.47l15.5,11.59q2,6.19,3.93,12.76t3.55,13.1q1.74,6.6,3.42,13.16T738.74,290c.45,1.48.87,3,1.26,4.54s.81,3.06,1.26,4.55h.07a7,7,0,0,1,.22.78,7.54,7.54,0,0,0,.21.77c.32,1.23.69,2.56,1.11,4s.87,3,1.36,4.74c.36,1.17.67,2.29.94,3.36s.55,2.05.82,3c.57,2,1.07,3.72,1.47,5.07s.71,2.4.91,3.12h-.07c.63,1.74,1.37,4.19,2.23,7.33s1.87,7,3.06,11.66q1.45,5.64,2.88,11.33t2.87,11.33h.07c.67,2.39,1.34,4.79,2,7.19s1.32,4.79,2,7.19l1.56,6.16q.75,3,1.28,5.7,1.46,4.72,2.39,9c.62,2.83,1.14,5.71,1.57,8.66a118.41,118.41,0,0,1-12.27,11.48q-7,5.7-15.92,11.65c-.87.79-2,1.74-3.25,2.87l-4.2,3.64-4.64,4-4.57,4-4,3.48c-1.21,1-2.19,1.9-2.94,2.57l-15.58-11.64a1.27,1.27,0,0,0-.32.26q-1.57-6.06-3.17-12.14c-1.05-4.05-2.08-7.95-3.06-11.69s-1.92-7.22-2.79-10.46-1.62-6.08-2.25-8.53q-2,8.54-3.84,14.24a46.38,46.38,0,0,1-3.93,9.11,9.06,9.06,0,0,1-4,3.29,27.86,27.86,0,0,1-7.65,2l-15.58-11.64-.34.05Q647,400.6,613,366.5a137.08,137.08,0,0,0,4.43-13.23q2.12-7.39,4-16.49,3.9-10.59,9.83-41.29l10.74-49.1q12.35-4.89,26.07-11.22t29-14.18Zm-7.93,2.77q-30.72,15.87-51.55,24l-9.71,44.52q-6,31-10,41.94-4,18.44-6.7,25.38,30.46,30.66,37.32,42.44c.33-.05.46-.26.41-.63q4.3-6.75,8.67-29.75,18.08,2,25.29,3.11L696.9,388q.95,2.61,10.23,38.52l14.36-12.45q17.24-11.52,24.26-19.1a102.93,102.93,0,0,0-3.32-13.14q-1-5.34-2.73-11.59l-4-14.31-5.83-22.79q-3.43-14-5.18-18.73-.94-3.1-4.15-14.5-1.81-6.23-2.9-10.3l-2.6-9.22L708.2,254Q704.89,240.9,700.85,228.57ZM678.3,310.14a344.55,344.55,0,0,1,11.39,38.78,54.33,54.33,0,0,1-17.55-1.34Q672.62,335.73,678.3,310.14Z"/><path class="cls-1" d="M946.21,150.38l0,.35,15.58,11.64q4.13,24.66,8,45.44t7.8,38.56h-.07q6,21.92,11.44,40t10.58,33.11q4.5,15.5,8.88,28.24t8.6,22.85l-12.74,11.43q-2.34,1.89-5.48,4.54t-6.79,5.78q-3.63,3.13-7.68,6.65t-8.17,7.14q-4.12,3.63-8.19,7.25l-7.75,6.91-15.66-11.7a.94.94,0,0,0-.25.24q-2.13-4.49-4.26-10T936,387.22q-2-6.2-3.93-13t-3.6-14.12q-1.38-5.65-3-11.8t-3.57-12.72c-.45,2.38-.92,5.3-1.41,8.78s-.92,7.58-1.32,12.29l-8.92,1.29q-8.22,1.2-34.84,8.85l-15.66-11.7a.39.39,0,0,0-.14.05.31.31,0,0,1-.13.06q-3.3-4.32-9-13.79.9,14.48,1.9,28t2,25.36q1,11.85,2,21.73t1.8,17.1c-2.77-.64-6-1.36-9.77-2.19s-7.73-1.68-12-2.57L823.05,426q-6.84-1.44-13.46-2.78l-12.75-2.56q-6.14-1.23-11.07-2.14L770.34,407a.49.49,0,0,0-.29,0,.74.74,0,0,1-.29,0c-.06-2.68-.08-6.45-.08-11.32v-17q0-9.74,0-21.49t.07-24.67q.32-23.11-.86-52.26t-3.82-64.39c1.6-1,3.72-2.28,6.36-3.88s5.59-3.42,8.87-5.45l10.56-6.53q5.63-3.49,11.46-7.09A139.2,139.2,0,0,0,814.88,184q6.24-4.89,12.44-10.79a2.81,2.81,0,0,0,.38.72l15.35,11.47q2.72,5.1,5.08,9.49l4.44,8.28,4,7.43q1.89,3.54,3.78,6.87v-.07c.32-2.35.64-4.92,1-7.69s.68-5.63,1.05-8.55.74-5.73,1.06-8.55.64-5.43,1-7.83q7.47-4,15.89-8.68t17.3-9.84q8.9-5.13,18-10.62t18.09-11ZM938,151.86q-35.87,22.26-65.79,38.23l-3.52,28.38q-2,14.19-4.26,34.9-18.89-28.65-39.25-66.49-5.07,4.89-18.36,13-23.16,14.49-32.9,20.35,4.82,65.48,4.3,112.12-.3,51.54-.11,67.53,29.67,5.58,54.62,11.29-4.27-36.42-8-112.58a.43.43,0,0,0,.41-.55l-.48.07q.39-11.42-.21-15.57l.56-.07q3.5,7.17,23.16,38.2Q860.7,343,862.62,345.56q21.75-6.26,30.59-7.53l2.56-.37q1.41-15.59,3.69-21.28Q902.7,295.88,910,267l.55-.08a.48.48,0,0,1-.47.63q1.65,4.07,6.57,23.95a679.08,679.08,0,0,1,20,66.71q6.9,29.16,10.56,36.88,22.15-19.92,36.06-31.18l8.24-7.4q-6.35-15-15.47-46.44-10.18-29.93-22.18-73.83Q946.12,201,938,151.86Z"/><path class="cls-1" d="M1121.7,127.67a.31.31,0,0,1,0,.18.12.12,0,0,0,0,.11l15.65,11.63q.48,5.22,1,9.8t1.19,9.15c.15,1.06.3,2.08.44,3.07s.31,2,.51,3l1.31,9c.19,1.34.4,2.63.63,3.89s.5,2.67.82,4.22l1.76,8.71q-5.54,7.16-20.06,11.58-2.31,1.11-6.69,3t-11.07,4.46l3.56,2.66,2.18,20.42.58,4q.65,4.5,1.5,8.89,4.15-2,8.61-4.11t9.3-4.27a50.54,50.54,0,0,1,7.91-2.56c3.21-.79,6.83-1.48,10.89-2.07l.06.42,15.58,11.64q.65,5.41,1.38,11.48t1.45,11.71c.47,3.77.91,7.24,1.33,10.43s.76,5.72,1,7.61l3.75,25.91q-8.64,1.26-27.84,10.42t-49.2,26.2q-9.67,4.79-20.65,10.85t-23.43,13.59L1039.48,361a.37.37,0,0,0-.26.18,113.56,113.56,0,0,1-7.07-13.73,169.6,169.6,0,0,1-6.13-16.54q-4.57-16-11.62-37.15t-16.79-48.05c-.31-.85-.74-2.14-1.27-3.88s-1.22-3.88-2.06-6.44q-.6-1.74-1.26-3.84c-.44-1.39-.91-2.87-1.42-4.45q-6.23-15.74-9.83-26.72a110.62,110.62,0,0,1-4.51-17.27q5.67-3.28,17.07-8.36T1022.89,163q39.34-16.69,86.64-41.88Zm-8.35.86q-48.21,25.59-87.36,42.27-33.91,13.3-39.64,16.67.84,5.73,13,36.49,4.8,15.1,6.13,18.94,19.49,53.68,28.56,85.68,5.25,16.88,7.92,21.15,17.77-10.77,37.61-20.47,61.14-34.81,71.57-36.32l-2.58-17.83q-1.65-11.4-4.22-33.11a31.29,31.29,0,0,0-7.94,2.7q-28.8,13-41.68,20.56-13.37,7.65-27.55,14.36l-1,.15a73.73,73.73,0,0,1-2.52-10.57l-.22-1.52,31.34-16.46q-3.32-10.74-5.79-29.29l-1.28-12.3q-3.73.54-35.56,16.08a119.18,119.18,0,0,1-3.65-14.5,135.23,135.23,0,0,1,19.13-11.09q13.85-6.3,19.43-9.58,15.21-6,19.09-8,12.51-3.78,14.3-6l-1.07-5q-1.3-6-1.86-10.88l-1-6.57Q1114.61,142.6,1113.35,128.53Z"/><path class="cls-1" d="M699.73,446.61a1.13,1.13,0,0,0,.18.48L717.1,458q4.38,10.82,9,21.35t9.53,21.08q.45-13,.41-25.35t-.34-24.36l73.79-20.4a1.34,1.34,0,0,0-.06.39l17.36,11q-.32,2.92-.72,7.15c-.27,2.82-.56,5.9-.88,9.26s-.65,6.9-1,10.63-.69,7.51-1.06,11.33-.72,7.59-1,11.32-.65,7.29-.94,10.66q-1.3,12.91-2.17,25.56t-1.4,25.61q-1.37,12.93-2.19,24.92t-1.08,23.55c-.14,2.28-.28,4.61-.42,7s-.26,4.57-.35,6.62-.18,3.87-.27,5.47-.15,2.78-.18,3.53l-15,9.92.09.06q-5.4,3.7-11.18,7.74t-11.19,7.87q-5.42,3.81-10,7.1t-7.69,5.57l-17.36-11a.3.3,0,0,1-.09.1s0,0-.09.09q-10.17-11.38-18.94-22.3T705.93,608.7c-.92-1.15-2.14-2.86-3.68-5.15s-3.36-5-5.44-8.28-4.42-6.92-7-11-5.36-8.64-8.32-13.53q-4.32-6.16-15.85-28.63t-30.13-60.9a106.66,106.66,0,0,1,11.56-11.1,166,166,0,0,1,14-10.37q6.21-4.79,12.91-9.22t13.59-8.26Zm-8.09,3.47A184.74,184.74,0,0,0,666.06,467q-14.53,9.52-20.07,15.65,35.34,73,42.91,83.23,21.81,35.75,24.22,37.76a407.64,407.64,0,0,0,28.71,36.29Q754.18,631,775.75,616l11.44-7.61q.25-4.57,1.06-18.28.59-23.05,3.23-48.69,1-25.79,3.59-51.4,2.65-30.21,4.38-47.89L744.7,457.36q1.23,39.4-2.92,94l-8.91-13.85q-6.6-11.6-11.06-21Q705.25,483.4,691.64,450.08Z"/><path class="cls-1" d="M971.48,426.05a.13.13,0,0,1,0,.11.16.16,0,0,0,0,.12L977.4,430l11.42,7.28q.66,7.29,1.6,13.92t2,12.84l1,7.28c.19,1.52.46,3.2.8,5s.73,3.86,1.17,6l0,.14c.11.48.25,1.18.43,2.09s.39,1.87.61,2.87.43,1.94.6,2.83.31,1.55.41,2a29,29,0,0,1-5.78,5,19.34,19.34,0,0,1-6.3,2.74c-1.14.26-2.49.52-4,.79s-3.27.5-5.18.68a34.13,34.13,0,0,1-3.37.91l-4.4,1c-1.38.32-2.81.63-4.3.94l-5.24,1.07,6.57,4.15q.43,10.57,1.42,19a145.28,145.28,0,0,0,2.46,14.89c.14.63.34,1.46.6,2.5s.56,2.18.88,3.41l.65-.15a13.58,13.58,0,0,1,1.48-.41l1.58-.35a26.3,26.3,0,0,1,6-.5,76.71,76.71,0,0,1,9,.78c0,.09,0,.15,0,.18a.29.29,0,0,0,0,.19L1007,560q.71,5.77,1.52,11.87t1.58,11.71q.78,5.61,1.45,10.38t1.12,7.83c.19,1.26.44,2.89.77,4.9s.67,4.08,1,6.23.69,4.23,1,6.24.56,3.6.77,4.75Q987.42,631,961.16,640.2a488.55,488.55,0,0,0-50.53,20.94l-17.35-11a.91.91,0,0,1-.17.12.6.6,0,0,0-.16.11q-4.26-13.54-9.17-29t-10.1-31.58q-5.17-16.12-10.48-32.33t-10.3-31.31c-.48-1.45-1.27-4-2.39-7.58s-2.5-8.23-4.18-13.87q-10.17-28.14-13.39-42.38c-.56-2.47-1-4.64-1.24-6.48a149.66,149.66,0,0,1,25.1-7.69q8.44-1.91,20.65-4.43,18.52-4.56,39.21-10.8t43.23-14.27Zm-8.74.92q-46,16.38-83.5,25.37-32.47,6.65-37.88,9,.87,6.2,13.43,40.87,5,16.83,6.43,21.17,20,60.36,37.12,114.6,39.95-19.23,90.66-31.65L986.66,592q-1.89-12.36-4.84-35.44a20.1,20.1,0,0,0-7.58,1A161.07,161.07,0,0,0,948,566q-12.75,5.13-26.29,9.09l-.92-.09q-2-6.91-4.45-19.07l-.21-1.61L946,543.88a155.93,155.93,0,0,1-6.23-37.61q-3.51-.25-33.94,9.16a140.71,140.71,0,0,1-3.9-16A102.34,102.34,0,0,1,920.2,492a163.89,163.89,0,0,0,18.53-5.83q14.6-3,18.3-4.2,12-1.28,13.63-3.23l-1.1-5.54q-1.39-6.45-2.06-11.79l-1-7Q964.25,442,962.74,427Z"/><path class="cls-1" d="M1038.22,417a89.72,89.72,0,0,1,10.39-4.79,76.54,76.54,0,0,1,10.72-3.28,63.6,63.6,0,0,1,6.8-1.16q3.38-.39,6.79-.55,18.3-.53,29.36,8.18l14.55,9.2a42.33,42.33,0,0,1,4.44,3.35,39.68,39.68,0,0,1,9.4,18.33q3.69,16.38-3.78,40.24c-1.1,2.45-2,4.55-2.83,6.28l-2.21,4.86c-.69,1.5-1.4,3-2.15,4.46s-1.63,3.15-2.66,5q9.8,5.08,21.75,10.46t26.14,10.91l-.17.26,17.43,11-28.81,56.19L1136,585l-.11.18L1111,568.59a12.1,12.1,0,0,0,.72,1.53c.25.47.48.91.67,1.32a106.88,106.88,0,0,1,4.16,10.94q2.43,7.26,5.55,18.44-18.35-3-35.16-4.44t-32.59-1.33l-17.18-10.85a1.23,1.23,0,0,1-.26,0,.8.8,0,0,0-.26,0c-.54-1.94-1.22-4.43-2.06-7.47s-1.8-6.38-2.9-10-2.25-7.44-3.48-11.43-2.47-7.88-3.73-11.71q-2.62-8-6.84-20t-9.76-27.6c-.38-1-.93-2.52-1.65-4.52l-2.56-7q-1.46-4-3.23-8.82t-3.7-10.1a113.57,113.57,0,0,1,16.52-26.06,129.39,129.39,0,0,1,24.13-22Zm4.23,7.76q-26,18.64-36.26,41.18,7.75,21,10,27.14,11.33,31.88,16.63,47.74,7.58,22.95,10.64,34.51a297.07,297.07,0,0,1,49.26,3.77,89.71,89.71,0,0,0-5.58-15.05q-3.22-6.64-14.39-31.48l59.86,39.79,20.1-39.19q-32.78-13-56.14-27.62l-8.78-5.61q6.74-12.42,13.61-27.65,10.5-33.72-3.89-49.57-8.09-7.19-24.22-6.71A67.57,67.57,0,0,0,1042.45,424.77Zm3.77,51q7.82-10.64,12.36-12.86,6.42-3.85,9.42,2.46,3.68,7.59-8.45,26.18l-3.72,4.83-4.92-9.49Q1049.29,483.43,1046.22,475.79Z"/><path class="cls-1" d="M542.64,364.34q-17.31,6.18-17.09,7.69l.88,6.09q.47,3.24,1.38,23.71.54,3.74-14.79,9.41-15.75,2.28-17.75-11.47-1-11.29,3.73-24.46,8.49-16.89,23.46-24.63,20.31-11.76,34.89-13.87l3-.44q6.75-43.1,12.82-62.1l-19.06,4.8q-35.53,11.91-50,20.71-22.34,10.43-44.37,37.6a92.38,92.38,0,0,0-10.13,19.67A118.42,118.42,0,0,0,445,411.2q.9,6.23,5,20.1,5.37,12.27,8.91,14.8,9.57,10.53,18.59,13.39,13.94,4.2,23.27,2.84,23.19-3.07,50.8-21.88,11.49-.1,31.55-.9,4.59-26.34,1.68-92.73Q574.14,350.47,542.64,364.34Z"/><path class="cls-1" d="M739.7,370.26l-4-14.31-5.83-22.79q-3.43-14-5.18-18.73-.94-3.1-4.15-14.5-1.81-6.23-2.9-10.3l-2.6-9.22L708.2,254q-3.32-13.07-7.35-25.39-30.72,15.87-51.55,24l-9.71,44.52q-6,31-10,41.94-4,18.44-6.7,25.38,30.46,30.66,37.32,42.44c.33-.05.46-.26.41-.63q4.3-6.75,8.67-29.75,18.08,2,25.29,3.11L696.9,388q.95,2.61,10.23,38.52l14.36-12.45q17.24-11.52,24.26-19.1a102.93,102.93,0,0,0-3.32-13.14Q741.38,376.51,739.7,370.26Zm-67.56-22.68q.48-11.85,6.16-37.44a344.55,344.55,0,0,1,11.39,38.78A54.33,54.33,0,0,1,672.14,347.58Z"/><path class="cls-1" d="M953.84,236.27Q946.12,201,938,151.86q-35.87,22.26-65.79,38.23l-3.52,28.38q-2,14.19-4.26,34.9-18.89-28.65-39.25-66.49-5.07,4.89-18.36,13-23.16,14.49-32.9,20.35,4.82,65.48,4.3,112.12-.3,51.54-.11,67.53,29.67,5.58,54.62,11.29-4.27-36.42-8-112.58a.43.43,0,0,0,.41-.55l-.48.07q.39-11.42-.21-15.57l.56-.07q3.5,7.17,23.16,38.2Q860.7,343,862.62,345.56q21.75-6.26,30.59-7.53l2.56-.37q1.41-15.59,3.69-21.28Q902.7,295.88,910,267l.55-.08a.48.48,0,0,1-.47.63q1.65,4.07,6.57,23.95a679.08,679.08,0,0,1,20,66.71q6.9,29.16,10.56,36.88,22.15-19.92,36.06-31.18l8.24-7.4q-6.35-15-15.47-46.44Q965.84,280.17,953.84,236.27Z"/><path class="cls-1" d="M1144.38,242a31.29,31.29,0,0,0-7.94,2.7q-28.8,13-41.68,20.56-13.37,7.65-27.55,14.36l-1,.15a73.73,73.73,0,0,1-2.52-10.57l-.22-1.52,31.34-16.46q-3.32-10.74-5.79-29.29l-1.28-12.3q-3.73.54-35.56,16.08a119.18,119.18,0,0,1-3.65-14.5,135.23,135.23,0,0,1,19.13-11.09q13.85-6.3,19.43-9.58,15.21-6,19.09-8,12.51-3.78,14.3-6l-1.07-5q-1.3-6-1.86-10.88l-1-6.57q-1.95-11.49-3.21-25.56-48.21,25.59-87.36,42.27-33.91,13.3-39.64,16.67.84,5.73,13,36.49,4.8,15.1,6.13,18.94,19.49,53.68,28.56,85.68,5.25,16.88,7.92,21.15,17.77-10.77,37.61-20.47,61.14-34.81,71.57-36.32l-2.58-17.83Q1147,263.71,1144.38,242Z"/><path class="cls-1" d="M741.78,551.38l-8.91-13.85q-6.6-11.6-11.06-21-16.56-33.09-30.17-66.41A184.74,184.74,0,0,0,666.06,467q-14.53,9.52-20.07,15.65,35.34,73,42.91,83.23,21.81,35.75,24.22,37.76a407.64,407.64,0,0,0,28.71,36.29Q754.18,631,775.75,616l11.44-7.61q.25-4.57,1.06-18.28.59-23.05,3.23-48.69,1-25.79,3.59-51.4,2.65-30.21,4.38-47.89L744.7,457.36Q745.93,496.77,741.78,551.38Z"/><path class="cls-1" d="M981.82,556.54a20.1,20.1,0,0,0-7.58,1A161.07,161.07,0,0,0,948,566q-12.75,5.13-26.29,9.09l-.92-.09q-2-6.91-4.45-19.07l-.21-1.61L946,543.88a155.93,155.93,0,0,1-6.23-37.61q-3.51-.25-33.94,9.16a140.71,140.71,0,0,1-3.9-16A102.34,102.34,0,0,1,920.2,492a163.89,163.89,0,0,0,18.53-5.83q14.6-3,18.3-4.2,12-1.28,13.63-3.23l-1.1-5.54q-1.39-6.45-2.06-11.79l-1-7Q964.25,442,962.74,427q-46,16.38-83.5,25.37-32.47,6.65-37.88,9,.87,6.2,13.43,40.87,5,16.83,6.43,21.17,20,60.36,37.12,114.6,39.95-19.23,90.66-31.65L986.66,592Q984.77,579.62,981.82,556.54Z"/><path class="cls-1" d="M1087.75,500q6.74-12.42,13.61-27.65,10.5-33.72-3.89-49.57-8.09-7.19-24.22-6.71a67.57,67.57,0,0,0-30.8,8.75q-26,18.64-36.26,41.18,7.75,21,10,27.14,11.33,31.88,16.63,47.74,7.58,22.95,10.64,34.51a297.07,297.07,0,0,1,49.26,3.77,89.71,89.71,0,0,0-5.58-15.05q-3.22-6.64-14.39-31.48l59.86,39.79,20.1-39.19q-32.78-13-56.14-27.62Zm-28.2-8.38-3.72,4.83-4.92-9.49q-1.62-3.48-4.69-11.12,7.82-10.64,12.36-12.86,6.42-3.85,9.42,2.46Q1071.68,473,1059.55,491.57Z"/><path d="M585.7,262.58l-.15.45,15.66,11.7q-4.19,13-7.86,28.55t-7,34.2l3.16-1.12c1-.36,2.05-.74,3.08-1.12a1,1,0,0,1,0,.25,1,1,0,0,0,0,.24l15.65,11.64q1.71,39.12,1.11,67.11t-3.54,44.78c-3.36.16-6.77.3-10.21.42l-9.93.34-8.88.3q-4.11.14-7,.13a159,159,0,0,1-27.07,14.82,100,100,0,0,1-25,7q-11.34,1.63-26.91-3.09a40.59,40.59,0,0,1-12-6.38l-12.19-9.1a52,52,0,0,1-6.86-5,79.92,79.92,0,0,1-6.65-6.44,33.61,33.61,0,0,1-5.37-6.91,90.82,90.82,0,0,1-5.69-11q-2.15-7.53-3.49-12.94t-1.86-8.94a126.38,126.38,0,0,1,5-58.08,108.57,108.57,0,0,1,5-11.19A104.65,104.65,0,0,1,453.36,332,173.54,173.54,0,0,1,473,311.35q3.8-3.44,7.57-6.39t7.64-5.48q3-2.06,5.91-3.74t5.79-3.17q3.86-2.18,9.19-4.72T521,282.56q6.59-2.74,14.31-5.67t16.41-5.79Zm-31.55,16.49q-35.53,11.91-50,20.71-22.34,10.43-44.37,37.6a92.38,92.38,0,0,0-10.13,19.67A118.42,118.42,0,0,0,445,411.2q.9,6.23,5,20.1,5.37,12.27,8.91,14.8,9.57,10.53,18.59,13.39,13.94,4.2,23.27,2.84,23.19-3.07,50.8-21.88,11.49-.1,31.55-.9,4.59-26.34,1.68-92.73-10.62,3.65-42.12,17.52-17.31,6.18-17.09,7.69l.88,6.09q.47,3.24,1.38,23.71.54,3.74-14.79,9.41-15.75,2.28-17.75-11.47-1-11.29,3.73-24.46,8.49-16.89,23.46-24.63,20.31-11.76,34.89-13.87l3-.44q6.75-43.1,12.82-62.1ZM519.47,402.19l0-.14c0,.05,0,.08,0,.08s0,0,0,.07Zm6.58,61.56,2.1-.87c.68-.29,1.4-.6,2.15-.95-.75.35-1.47.65-2.16.92S526.75,463.41,526.05,463.75Zm9.73-4.44.82-.44a9,9,0,0,1,.88-.44l-.85.44Zm2-1c-.09,0-.15,0-.17.06a.37.37,0,0,1-.17.06.37.37,0,0,0,.17-.06S537.73,458.32,537.82,458.31Z"/><path d="M708.78,225.8a1.09,1.09,0,0,0,.14.47l15.5,11.59q2,6.19,3.93,12.76t3.55,13.1q1.74,6.6,3.42,13.16T738.74,290c.45,1.48.87,3,1.26,4.54s.81,3.06,1.26,4.55h.07a7,7,0,0,1,.22.78,7.54,7.54,0,0,0,.21.77c.32,1.23.69,2.56,1.11,4s.87,3,1.36,4.74c.36,1.17.67,2.29.94,3.36s.55,2.05.82,3c.57,2,1.07,3.72,1.47,5.07s.71,2.4.91,3.12h-.07c.63,1.74,1.37,4.19,2.23,7.33s1.87,7,3.06,11.66q1.45,5.64,2.88,11.33t2.87,11.33h.07c.67,2.39,1.34,4.79,2,7.19s1.32,4.79,2,7.19l1.56,6.16q.75,3,1.28,5.7,1.46,4.72,2.39,9c.62,2.83,1.14,5.71,1.57,8.66a118.41,118.41,0,0,1-12.27,11.48q-7,5.7-15.92,11.65c-.87.79-2,1.74-3.25,2.87l-4.2,3.64-4.64,4-4.57,4-4,3.48c-1.21,1-2.19,1.9-2.94,2.57l-15.58-11.64a1.27,1.27,0,0,0-.32.26q-1.57-6.06-3.17-12.14c-1.05-4.05-2.08-7.95-3.06-11.69s-1.92-7.22-2.79-10.46-1.62-6.08-2.25-8.53q-2,8.54-3.84,14.24a46.38,46.38,0,0,1-3.93,9.11,9.06,9.06,0,0,1-4,3.29,27.86,27.86,0,0,1-7.65,2l-15.58-11.64-.34.05Q647,400.6,613,366.5a137.08,137.08,0,0,0,4.43-13.23q2.12-7.39,4-16.49,3.9-10.59,9.83-41.29l10.74-49.1q12.35-4.89,26.07-11.22t29-14.18Zm-7.93,2.77q-30.72,15.87-51.55,24l-9.71,44.52q-6,31-10,41.94-4,18.44-6.7,25.38,30.46,30.66,37.32,42.44c.33-.05.46-.26.41-.63q4.3-6.75,8.67-29.75,18.08,2,25.29,3.11L696.9,388q.95,2.61,10.23,38.52l14.36-12.45q17.24-11.52,24.26-19.1a102.93,102.93,0,0,0-3.32-13.14q-1-5.34-2.73-11.59l-4-14.31-5.83-22.79q-3.43-14-5.18-18.73-.94-3.1-4.15-14.5-1.81-6.23-2.9-10.3l-2.6-9.22L708.2,254Q704.89,240.9,700.85,228.57ZM678.3,310.14a344.55,344.55,0,0,1,11.39,38.78,54.33,54.33,0,0,1-17.55-1.34Q672.62,335.73,678.3,310.14Z"/><path d="M946.21,150.38l0,.35,15.58,11.64q4.13,24.66,8,45.44t7.8,38.56h-.07q6,21.92,11.44,40t10.58,33.11q4.5,15.5,8.88,28.24t8.6,22.85l-12.74,11.43q-2.34,1.89-5.48,4.54t-6.79,5.78q-3.63,3.13-7.68,6.65t-8.17,7.14q-4.12,3.63-8.19,7.25l-7.75,6.91-15.66-11.7a.94.94,0,0,0-.25.24q-2.13-4.49-4.26-10T936,387.22q-2-6.2-3.93-13t-3.6-14.12q-1.38-5.65-3-11.8t-3.57-12.72c-.45,2.38-.92,5.3-1.41,8.78s-.92,7.58-1.32,12.29l-8.92,1.29q-8.22,1.2-34.84,8.85l-15.66-11.7a.39.39,0,0,0-.14.05.31.31,0,0,1-.13.06q-3.3-4.32-9-13.79.9,14.48,1.9,28t2,25.36q1,11.85,2,21.73t1.8,17.1c-2.77-.64-6-1.36-9.77-2.19s-7.73-1.68-12-2.57L823.05,426q-6.84-1.44-13.46-2.78l-12.75-2.56q-6.14-1.23-11.07-2.14L770.34,407a.49.49,0,0,0-.29,0,.74.74,0,0,1-.29,0c-.06-2.68-.08-6.45-.08-11.32v-17q0-9.74,0-21.49t.07-24.67q.32-23.11-.86-52.26t-3.82-64.39c1.6-1,3.72-2.28,6.36-3.88s5.59-3.42,8.87-5.45l10.56-6.53q5.63-3.49,11.46-7.09A139.2,139.2,0,0,0,814.88,184q6.24-4.89,12.44-10.79a2.81,2.81,0,0,0,.38.72l15.35,11.47q2.72,5.1,5.08,9.49l4.44,8.28,4,7.43q1.89,3.54,3.78,6.87v-.07c.32-2.35.64-4.92,1-7.69s.68-5.63,1.05-8.55.74-5.73,1.06-8.55.64-5.43,1-7.83q7.47-4,15.89-8.68t17.3-9.84q8.9-5.13,18-10.62t18.09-11ZM938,151.86q-35.87,22.26-65.79,38.23l-3.52,28.38q-2,14.19-4.26,34.9-18.89-28.65-39.25-66.49-5.07,4.89-18.36,13-23.16,14.49-32.9,20.35,4.82,65.48,4.3,112.12-.3,51.54-.11,67.53,29.67,5.58,54.62,11.29-4.27-36.42-8-112.58a.43.43,0,0,0,.41-.55l-.48.07q.39-11.42-.21-15.57l.56-.07q3.5,7.17,23.16,38.2Q860.7,343,862.62,345.56q21.75-6.26,30.59-7.53l2.56-.37q1.41-15.59,3.69-21.28Q902.7,295.88,910,267l.55-.08a.48.48,0,0,1-.47.63q1.65,4.07,6.57,23.95a679.08,679.08,0,0,1,20,66.71q6.9,29.16,10.56,36.88,22.15-19.92,36.06-31.18l8.24-7.4q-6.35-15-15.47-46.44-10.18-29.93-22.18-73.83Q946.12,201,938,151.86Z"/><path d="M1121.7,127.67a.31.31,0,0,1,0,.18.12.12,0,0,0,0,.11l15.65,11.63q.48,5.22,1,9.8t1.19,9.15c.15,1.06.3,2.08.44,3.07s.31,2,.51,3l1.31,9c.19,1.34.4,2.63.63,3.89s.5,2.67.82,4.22l1.76,8.71q-5.54,7.16-20.06,11.58-2.31,1.11-6.69,3t-11.07,4.46l3.56,2.66,2.18,20.42.58,4q.65,4.5,1.5,8.89,4.15-2,8.61-4.11t9.3-4.27a50.54,50.54,0,0,1,7.91-2.56c3.21-.79,6.83-1.48,10.89-2.07l.06.42,15.58,11.64q.65,5.41,1.38,11.48t1.45,11.71c.47,3.77.91,7.24,1.33,10.43s.76,5.72,1,7.61l3.75,25.91q-8.64,1.26-27.84,10.42t-49.2,26.2q-9.67,4.79-20.65,10.85t-23.43,13.59L1039.48,361a.37.37,0,0,0-.26.18,113.56,113.56,0,0,1-7.07-13.73,169.6,169.6,0,0,1-6.13-16.54q-4.57-16-11.62-37.15t-16.79-48.05c-.31-.85-.74-2.14-1.27-3.88s-1.22-3.88-2.06-6.44q-.6-1.74-1.26-3.84c-.44-1.39-.91-2.87-1.42-4.45q-6.23-15.74-9.83-26.72a110.62,110.62,0,0,1-4.51-17.27q5.67-3.28,17.07-8.36T1022.89,163q39.34-16.69,86.64-41.88Zm-8.35.86q-48.21,25.59-87.36,42.27-33.91,13.3-39.64,16.67.84,5.73,13,36.49,4.8,15.1,6.13,18.94,19.49,53.68,28.56,85.68,5.25,16.88,7.92,21.15,17.77-10.77,37.61-20.47,61.14-34.81,71.57-36.32l-2.58-17.83q-1.65-11.4-4.22-33.11a31.29,31.29,0,0,0-7.94,2.7q-28.8,13-41.68,20.56-13.37,7.65-27.55,14.36l-1,.15a73.73,73.73,0,0,1-2.52-10.57l-.22-1.52,31.34-16.46q-3.32-10.74-5.79-29.29l-1.28-12.3q-3.73.54-35.56,16.08a119.18,119.18,0,0,1-3.65-14.5,135.23,135.23,0,0,1,19.13-11.09q13.85-6.3,19.43-9.58,15.21-6,19.09-8,12.51-3.78,14.3-6l-1.07-5q-1.3-6-1.86-10.88l-1-6.57Q1114.61,142.6,1113.35,128.53Z"/><path d="M699.73,446.61a1.13,1.13,0,0,0,.18.48L717.1,458q4.38,10.82,9,21.35t9.53,21.08q.45-13,.41-25.35t-.34-24.36l73.79-20.4a1.34,1.34,0,0,0-.06.39l17.36,11q-.32,2.92-.72,7.15c-.27,2.82-.56,5.9-.88,9.26s-.65,6.9-1,10.63-.69,7.51-1.06,11.33-.72,7.59-1,11.32-.65,7.29-.94,10.66q-1.3,12.91-2.17,25.56t-1.4,25.61q-1.37,12.93-2.19,24.92t-1.08,23.55c-.14,2.28-.28,4.61-.42,7s-.26,4.57-.35,6.62-.18,3.87-.27,5.47-.15,2.78-.18,3.53l-15,9.92.09.06q-5.4,3.7-11.18,7.74t-11.19,7.87q-5.42,3.81-10,7.1t-7.69,5.57l-17.36-11a.3.3,0,0,1-.09.1s0,0-.09.09q-10.17-11.38-18.94-22.3T705.93,608.7c-.92-1.15-2.14-2.86-3.68-5.15s-3.36-5-5.44-8.28-4.42-6.92-7-11-5.36-8.64-8.32-13.53q-4.32-6.16-15.85-28.63t-30.13-60.9a106.66,106.66,0,0,1,11.56-11.1,166,166,0,0,1,14-10.37q6.21-4.79,12.91-9.22t13.59-8.26Zm-8.09,3.47A184.74,184.74,0,0,0,666.06,467q-14.53,9.52-20.07,15.65,35.34,73,42.91,83.23,21.81,35.75,24.22,37.76a407.64,407.64,0,0,0,28.71,36.29Q754.18,631,775.75,616l11.44-7.61q.25-4.57,1.06-18.28.59-23.05,3.23-48.69,1-25.79,3.59-51.4,2.65-30.21,4.38-47.89L744.7,457.36q1.23,39.4-2.92,94l-8.91-13.85q-6.6-11.6-11.06-21Q705.25,483.4,691.64,450.08Z"/><path d="M971.48,426.05a.13.13,0,0,1,0,.11.16.16,0,0,0,0,.12L977.4,430l11.42,7.28q.66,7.29,1.6,13.92t2,12.84l1,7.28c.19,1.52.46,3.2.8,5s.73,3.86,1.17,6l0,.14c.11.48.25,1.18.43,2.09s.39,1.87.61,2.87.43,1.94.6,2.83.31,1.55.41,2a29,29,0,0,1-5.78,5,19.34,19.34,0,0,1-6.3,2.74c-1.14.26-2.49.52-4,.79s-3.27.5-5.18.68a34.13,34.13,0,0,1-3.37.91l-4.4,1c-1.38.32-2.81.63-4.3.94l-5.24,1.07,6.57,4.15q.43,10.57,1.42,19a145.28,145.28,0,0,0,2.46,14.89c.14.63.34,1.46.6,2.5s.56,2.18.88,3.41l.65-.15a13.58,13.58,0,0,1,1.48-.41l1.58-.35a26.3,26.3,0,0,1,6-.5,76.71,76.71,0,0,1,9,.78c0,.09,0,.15,0,.18a.29.29,0,0,0,0,.19L1007,560q.71,5.77,1.52,11.87t1.58,11.71q.78,5.61,1.45,10.38t1.12,7.83c.19,1.26.44,2.89.77,4.9s.67,4.08,1,6.23.69,4.23,1,6.24.56,3.6.77,4.75Q987.42,631,961.16,640.2a488.55,488.55,0,0,0-50.53,20.94l-17.35-11a.91.91,0,0,1-.17.12.6.6,0,0,0-.16.11q-4.26-13.54-9.17-29t-10.1-31.58q-5.17-16.12-10.48-32.33t-10.3-31.31c-.48-1.45-1.27-4-2.39-7.58s-2.5-8.23-4.18-13.87q-10.17-28.14-13.39-42.38c-.56-2.47-1-4.64-1.24-6.48a149.66,149.66,0,0,1,25.1-7.69q8.44-1.91,20.65-4.43,18.52-4.56,39.21-10.8t43.23-14.27Zm-8.74.92q-46,16.38-83.5,25.37-32.47,6.65-37.88,9,.87,6.2,13.43,40.87,5,16.83,6.43,21.17,20,60.36,37.12,114.6,39.95-19.23,90.66-31.65L986.66,592q-1.89-12.36-4.84-35.44a20.1,20.1,0,0,0-7.58,1A161.07,161.07,0,0,0,948,566q-12.75,5.13-26.29,9.09l-.92-.09q-2-6.91-4.45-19.07l-.21-1.61L946,543.88a155.93,155.93,0,0,1-6.23-37.61q-3.51-.25-33.94,9.16a140.71,140.71,0,0,1-3.9-16A102.34,102.34,0,0,1,920.2,492a163.89,163.89,0,0,0,18.53-5.83q14.6-3,18.3-4.2,12-1.28,13.63-3.23l-1.1-5.54q-1.39-6.45-2.06-11.79l-1-7Q964.25,442,962.74,427Z"/><path d="M1038.22,417a89.72,89.72,0,0,1,10.39-4.79,76.54,76.54,0,0,1,10.72-3.28,63.6,63.6,0,0,1,6.8-1.16q3.38-.39,6.79-.55,18.3-.53,29.36,8.18l14.55,9.2a42.33,42.33,0,0,1,4.44,3.35,39.68,39.68,0,0,1,9.4,18.33q3.69,16.38-3.78,40.24c-1.1,2.45-2,4.55-2.83,6.28l-2.21,4.86c-.69,1.5-1.4,3-2.15,4.46s-1.63,3.15-2.66,5q9.8,5.08,21.75,10.46t26.14,10.91l-.17.26,17.43,11-28.81,56.19L1136,585l-.11.18L1111,568.59a12.1,12.1,0,0,0,.72,1.53c.25.47.48.91.67,1.32a106.88,106.88,0,0,1,4.16,10.94q2.43,7.26,5.55,18.44-18.35-3-35.16-4.44t-32.59-1.33l-17.18-10.85a1.23,1.23,0,0,1-.26,0,.8.8,0,0,0-.26,0c-.54-1.94-1.22-4.43-2.06-7.47s-1.8-6.38-2.9-10-2.25-7.44-3.48-11.43-2.47-7.88-3.73-11.71q-2.62-8-6.84-20t-9.76-27.6c-.38-1-.93-2.52-1.65-4.52l-2.56-7q-1.46-4-3.23-8.82t-3.7-10.1a113.57,113.57,0,0,1,16.52-26.06,129.39,129.39,0,0,1,24.13-22Zm4.23,7.76q-26,18.64-36.26,41.18,7.75,21,10,27.14,11.33,31.88,16.63,47.74,7.58,22.95,10.64,34.51a297.07,297.07,0,0,1,49.26,3.77,89.71,89.71,0,0,0-5.58-15.05q-3.22-6.64-14.39-31.48l59.86,39.79,20.1-39.19q-32.78-13-56.14-27.62l-8.78-5.61q6.74-12.42,13.61-27.65,10.5-33.72-3.89-49.57-8.09-7.19-24.22-6.71A67.57,67.57,0,0,0,1042.45,424.77Zm3.77,51q7.82-10.64,12.36-12.86,6.42-3.85,9.42,2.46,3.68,7.59-8.45,26.18l-3.72,4.83-4.92-9.49Q1049.29,483.43,1046.22,475.79Z"/><path class="cls-1" d="M542.64,364.34q-17.31,6.18-17.09,7.69l.88,6.09q.47,3.24,1.38,23.71.54,3.74-14.79,9.41-15.75,2.28-17.75-11.47-1-11.29,3.73-24.46,8.49-16.89,23.46-24.63,20.31-11.76,34.89-13.87l3-.44q6.75-43.1,12.82-62.1l-19.06,4.8q-35.53,11.91-50,20.71-22.34,10.43-44.37,37.6a92.38,92.38,0,0,0-10.13,19.67A118.42,118.42,0,0,0,445,411.2q.9,6.23,5,20.1,5.37,12.27,8.91,14.8,9.57,10.53,18.59,13.39,13.94,4.2,23.27,2.84,23.19-3.07,50.8-21.88,11.49-.1,31.55-.9,4.59-26.34,1.68-92.73Q574.14,350.47,542.64,364.34Z"/><path class="cls-1" d="M739.7,370.26l-4-14.31-5.83-22.79q-3.43-14-5.18-18.73-.94-3.1-4.15-14.5-1.81-6.23-2.9-10.3l-2.6-9.22L708.2,254q-3.32-13.07-7.35-25.39-30.72,15.87-51.55,24l-9.71,44.52q-6,31-10,41.94-4,18.44-6.7,25.38,30.46,30.66,37.32,42.44c.33-.05.46-.26.41-.63q4.3-6.75,8.67-29.75,18.08,2,25.29,3.11L696.9,388q.95,2.61,10.23,38.52l14.36-12.45q17.24-11.52,24.26-19.1a102.93,102.93,0,0,0-3.32-13.14Q741.38,376.51,739.7,370.26Zm-67.56-22.68q.48-11.85,6.16-37.44a344.55,344.55,0,0,1,11.39,38.78A54.33,54.33,0,0,1,672.14,347.58Z"/><path class="cls-1" d="M953.84,236.27Q946.12,201,938,151.86q-35.87,22.26-65.79,38.23l-3.52,28.38q-2,14.19-4.26,34.9-18.89-28.65-39.25-66.49-5.07,4.89-18.36,13-23.16,14.49-32.9,20.35,4.82,65.48,4.3,112.12-.3,51.54-.11,67.53,29.67,5.58,54.62,11.29-4.27-36.42-8-112.58a.43.43,0,0,0,.41-.55l-.48.07q.39-11.42-.21-15.57l.56-.07q3.5,7.17,23.16,38.2Q860.7,343,862.62,345.56q21.75-6.26,30.59-7.53l2.56-.37q1.41-15.59,3.69-21.28Q902.7,295.88,910,267l.55-.08a.48.48,0,0,1-.47.63q1.65,4.07,6.57,23.95a679.08,679.08,0,0,1,20,66.71q6.9,29.16,10.56,36.88,22.15-19.92,36.06-31.18l8.24-7.4q-6.35-15-15.47-46.44Q965.84,280.17,953.84,236.27Z"/><path class="cls-1" d="M1144.38,242a31.29,31.29,0,0,0-7.94,2.7q-28.8,13-41.68,20.56-13.37,7.65-27.55,14.36l-1,.15a73.73,73.73,0,0,1-2.52-10.57l-.22-1.52,31.34-16.46q-3.32-10.74-5.79-29.29l-1.28-12.3q-3.73.54-35.56,16.08a119.18,119.18,0,0,1-3.65-14.5,135.23,135.23,0,0,1,19.13-11.09q13.85-6.3,19.43-9.58,15.21-6,19.09-8,12.51-3.78,14.3-6l-1.07-5q-1.3-6-1.86-10.88l-1-6.57q-1.95-11.49-3.21-25.56-48.21,25.59-87.36,42.27-33.91,13.3-39.64,16.67.84,5.73,13,36.49,4.8,15.1,6.13,18.94,19.49,53.68,28.56,85.68,5.25,16.88,7.92,21.15,17.77-10.77,37.61-20.47,61.14-34.81,71.57-36.32l-2.58-17.83Q1147,263.71,1144.38,242Z"/><path class="cls-1" d="M741.78,551.38l-8.91-13.85q-6.6-11.6-11.06-21-16.56-33.09-30.17-66.41A184.74,184.74,0,0,0,666.06,467q-14.53,9.52-20.07,15.65,35.34,73,42.91,83.23,21.81,35.75,24.22,37.76a407.64,407.64,0,0,0,28.71,36.29Q754.18,631,775.75,616l11.44-7.61q.25-4.57,1.06-18.28.59-23.05,3.23-48.69,1-25.79,3.59-51.4,2.65-30.21,4.38-47.89L744.7,457.36Q745.93,496.77,741.78,551.38Z"/><path class="cls-1" d="M981.82,556.54a20.1,20.1,0,0,0-7.58,1A161.07,161.07,0,0,0,948,566q-12.75,5.13-26.29,9.09l-.92-.09q-2-6.91-4.45-19.07l-.21-1.61L946,543.88a155.93,155.93,0,0,1-6.23-37.61q-3.51-.25-33.94,9.16a140.71,140.71,0,0,1-3.9-16A102.34,102.34,0,0,1,920.2,492a163.89,163.89,0,0,0,18.53-5.83q14.6-3,18.3-4.2,12-1.28,13.63-3.23l-1.1-5.54q-1.39-6.45-2.06-11.79l-1-7Q964.25,442,962.74,427q-46,16.38-83.5,25.37-32.47,6.65-37.88,9,.87,6.2,13.43,40.87,5,16.83,6.43,21.17,20,60.36,37.12,114.6,39.95-19.23,90.66-31.65L986.66,592Q984.77,579.62,981.82,556.54Z"/><path class="cls-1" d="M1087.75,500q6.74-12.42,13.61-27.65,10.5-33.72-3.89-49.57-8.09-7.19-24.22-6.71a67.57,67.57,0,0,0-30.8,8.75q-26,18.64-36.26,41.18,7.75,21,10,27.14,11.33,31.88,16.63,47.74,7.58,22.95,10.64,34.51a297.07,297.07,0,0,1,49.26,3.77,89.71,89.71,0,0,0-5.58-15.05q-3.22-6.64-14.39-31.48l59.86,39.79,20.1-39.19q-32.78-13-56.14-27.62Zm-28.2-8.38-3.72,4.83-4.92-9.49q-1.62-3.48-4.69-11.12,7.82-10.64,12.36-12.86,6.42-3.85,9.42,2.46Q1071.68,473,1059.55,491.57Z"/></g><path class="cls-2" d="M448.74,525.93a3.68,3.68,0,0,0,.59-3,3.64,3.64,0,0,0-1.79-2.52,2.86,2.86,0,0,0-2.64-.68,3.64,3.64,0,0,0-2.52,1.79L433.63,535a4.07,4.07,0,0,0,4.24,6.16,3.64,3.64,0,0,0,2.52-1.79Z"/><path class="cls-3" d="M446.15,506.11a3.67,3.67,0,0,0-1.79-2.52l-13.52-8.75a4.41,4.41,0,0,0-3-.59,3.64,3.64,0,0,0-2.52,1.79,3.92,3.92,0,0,0,1.19,5.56L440,510.35a3.68,3.68,0,0,0,3,.59,4.18,4.18,0,0,0,3.12-4.83Z"/><path class="cls-4" d="M443.9,487.89a3.67,3.67,0,0,0-.59,3l2.47,11.53a4.16,4.16,0,0,0,4.83,3.12,4.18,4.18,0,0,0,3.12-4.82l-2.47-11.53a3.75,3.75,0,0,0-1.79-2.53,3.94,3.94,0,0,0-5.57,1.2Z"/><path class="cls-4" d="M424.89,519.41a3.66,3.66,0,0,0,1.78,2.52,3.7,3.7,0,0,0,3,.6l11.53-2.47a3.75,3.75,0,0,0,2.53-1.79,4.07,4.07,0,0,0-4.24-6.16L428,514.58a4.16,4.16,0,0,0-3.12,4.83Z"/><path d="M455,520l36.21,23.42-6.56,10.14A7.86,7.86,0,0,0,487,564.71l9.66,6.24a87.68,87.68,0,0,0-1.78,44,89.85,89.85,0,0,0,13.91,31.94,85.93,85.93,0,0,0,55.52,35.91,87.79,87.79,0,0,0,66.78-14.32A86,86,0,0,0,667,613a87.86,87.86,0,0,0-14.33-66.78,85.92,85.92,0,0,0-55.51-35.9,89.76,89.76,0,0,0-34.84.4,87.9,87.9,0,0,0-39.44,19.68l-9.65-6.24a7.86,7.86,0,0,0-11.13,2.39l-6.56,10.13-36.2-23.41Z"/><path class="cls-2" d="M455.49,501.2a3.92,3.92,0,0,0,1.19,5.56,3.67,3.67,0,0,0,3,.6,3.71,3.71,0,0,0,2.53-1.79L471,492.05a4.35,4.35,0,0,0,.6-3,4.39,4.39,0,0,0-1.79-2.53,3.7,3.7,0,0,0-3-.6,3.75,3.75,0,0,0-2.53,1.79Z"/><path class="cls-5" d="M520.57,567.66a8,8,0,0,0-4.31,4.32,71.88,71.88,0,0,0,.06,56.34,7.91,7.91,0,0,0,4.32,4.31,7.36,7.36,0,0,0,6-.3,10.14,10.14,0,0,0,2.59-1.44q3.87-3.89,1.71-8.62a62,62,0,0,1-4.62-21.84,53.17,53.17,0,0,1,4.58-21.86,8.06,8.06,0,0,0,0-6.32,7.91,7.91,0,0,0-4.32-4.31A8.83,8.83,0,0,0,520.57,567.66Z"/></g></svg>
