<svg xmlns="http://www.w3.org/2000/svg" width="128" height="128" viewBox="0 0 128 128"><defs><style>.cls-1{fill:#fc2103;}.cls-2{fill:#ce1705;}.cls-3{fill:#ff765f;}.cls-4{fill:#fa9;}</style></defs><title>heart</title><g id="heart"><path class="cls-1" d="M64,34.83c-28.6-49.25-99.92,25.42-.12,73.44v.12l.12-.06.12.06v-.12C163.92,60.25,92.6-14.42,64,34.83Z"/><path class="cls-2" d="M61.39,112.07C9.09,86.7,6.84,56.61,8.3,44.85c1.86-15,12.58-27.35,26.08-30.1a28.32,28.32,0,0,1,5.69-.58c9.07,0,17.42,4.45,23.93,12.66,6.51-8.21,14.86-12.67,23.92-12.67a28.44,28.44,0,0,1,5.7.59c13.5,2.75,24.22,15.13,26.08,30.1,1.46,11.76-.79,41.84-53,67.2L64,113.33ZM40,23.17a18.79,18.79,0,0,0-3.85.4c-9.77,2-17.56,11.2-18.95,22.39C16,55.72,18.21,80.67,64,103.32c45.79-22.65,48-47.6,46.77-57.36-1.39-11.19-9.18-20.4-19-22.39a18.86,18.86,0,0,0-3.85-.4c-7.74,0-14.87,4.94-20.08,13.92L64,43.79l-3.89-6.7C54.9,28.11,47.77,23.17,40,23.17Z"/><path class="cls-3" d="M123.17,44.42c-2-16.44-13.9-30.05-28.85-33.1a31.68,31.68,0,0,0-6.4-.66h0C79,10.66,70.74,14.45,64,21.5c-6.74-7-15-10.83-23.93-10.83a32.38,32.38,0,0,0-6.39.65C18.73,14.37,6.87,28,4.83,44.42c-1.56,12.51.7,44.44,55,70.8l1.08.52L64,117.22l3.06-1.48,1.12-.55C122.48,88.85,124.73,56.92,123.17,44.42ZM64,107.22C14.71,83.39,12.44,56.15,13.76,45.53c1.57-12.66,10.5-23.1,21.72-25.39A22.18,22.18,0,0,1,40,19.67c9,0,17.21,5.52,23.11,15.66L64,36.82l.86-1.49C70.76,25.19,79,19.67,88,19.67a22.18,22.18,0,0,1,4.55.47c11.22,2.29,20.15,12.73,21.72,25.39C115.56,56.15,113.3,83.39,64,107.22Z"/><path class="cls-4" d="M124.16,44.3c-2.09-16.86-14.28-30.83-29.64-34a32.86,32.86,0,0,0-6.6-.68c-8.83,0-17.09,3.6-23.92,10.41-6.84-6.81-15.09-10.4-23.93-10.4a32.9,32.9,0,0,0-6.59.67c-15.36,3.13-27.55,17.1-29.64,34C2.25,57,4.51,89.48,59.43,116.12L64,118.34l4.62-2.25C123.49,89.47,125.74,57,124.16,44.3Zm-56.42,70L64,116.11l-3.7-1.79C6.54,88.25,4.29,56.84,5.82,44.54c2-16,13.53-29.28,28.06-32.24a31.11,31.11,0,0,1,6.19-.63c8.6,0,16.62,3.64,23.21,10.52L64,23l.72-.76c6.59-6.89,14.61-10.53,23.2-10.53a31.15,31.15,0,0,1,6.2.64c14.53,3,26.07,16.22,28.06,32.24h0C123.71,56.83,121.46,88.23,67.74,114.3Z"/></g></svg>
