<svg xmlns="http://www.w3.org/2000/svg" width="300" height="150" viewBox="0 0 300 150"><defs><style>.cls-1{fill:#216d08;}.cls-2{fill:#90d198;}.cls-3{fill:#33993d;}.cls-4{fill:#f0fff0;}.cls-5{fill:#9ad89d;}</style></defs><title>play</title><g id="start"><g id="play"><rect class="cls-1" x="22" y="12" width="260" height="130" rx="31.26"/><rect class="cls-2" x="18" y="8" width="260" height="128" rx="31.26"/><rect class="cls-3" x="22" y="12" width="256" height="126" rx="31.26"/><path class="cls-4" d="M98.79,50.75a16,16,0,0,1,2.94,8.83q0,7.24-7.74,13.72a32,32,0,0,1-6.15,4.44A20.05,20.05,0,0,1,81.54,80l-2.14.47L78,80.75l-1,.2q-.44.08-.9.12c.24,2.06.54,4.29.92,6.71s.82,5,1.34,7.87l.21,3.41c-1.38.34-2.8.67-4.24,1L70,101l-4,.88-3.42.73-2.6.52c-.71.15-1.21.24-1.49.28l-4.19-4.19-.11,0q-.37-6.88-.74-13.58t-.65-12.86q-.3-6.17-.53-11.6c-.16-3.63-.28-6.9-.38-9.82q-.51-7.45-.51-11.07c0-.83,0-1.53.06-2.08A37,37,0,0,1,59,36a42.68,42.68,0,0,1,8.11-.75c1.5,0,3.07.06,4.72.19s3.41.31,5.25.55a31,31,0,0,1,9.36,3.61,33.2,33.2,0,0,1,8,6.63l2.69,2.69.76.77c.25.26.5.54.74.82Z"/><path class="cls-4" d="M259.86,55.88q-3.14,3-5.05,4.7c-1.28,1.15-2.19,1.92-2.72,2.3l-1.5,1.36-1.51,1.35L232.34,81.26l0,0c-.93.92-1.81,1.79-2.63,2.63s-1.61,1.69-2.39,2.53l-2.41,2.72L222,92.39l-3.12,3.51-3.24,3.64-3.21,3.6-3,3.39-4.2-4.19,0,0s0,0,0,0A99.71,99.71,0,0,0,201,92.35c-1.5-3.09-3.21-6.27-5.15-9.51a92.35,92.35,0,0,0-17.89,8.28l-4.19-3.87,0,0,0,0c-.13-.38-.25-.77-.38-1.18s-.25-.79-.38-1.17a2.56,2.56,0,0,0-.09-.26,1.55,1.55,0,0,0-.08-.23c-.11,1.2-.22,2.52-.31,4s-.17,3-.24,4.71q-5.62-1.71-10.51-2.94c-3.25-.82-6.3-1.48-9.13-2l-4.15-3.85h-.07q-.59,14.77-1.27,16.58a23.31,23.31,0,0,1-2.83,1.23c-1.12.41-2.43.82-3.94,1.23-1.2.46-3.8,1.34-7.81,2.62s-9.42,3-16.24,5L112,106.85l0,0,0,0c-.13-1.35-.29-2.88-.48-4.56s-.4-3.41-.63-5.17-.46-3.49-.7-5.21-.5-3.31-.76-4.75-.5-2.72-.76-4-.5-2.62-.74-3.85-.47-2.41-.69-3.53-.42-2.14-.6-3.09c-.27-1.48-.58-3.1-.93-4.87s-.72-3.56-1.11-5.4-.79-3.68-1.19-5.52-.79-3.57-1.17-5.21c1.46-.42,3-.89,4.74-1.4L112,48.69l5.14-1.62c1.68-.54,3.25-1,4.68-1.55l3.29,2.14v.15L129.32,52q.78,8.35,1.32,13.78c.36,3.61.63,6.24.81,7.87.06,1,.12,2.06.19,3.14s.15,2.18.22,3.32c.76-.37,1.64-.78,2.64-1.25l3.28-1.5a11.08,11.08,0,0,1,1.51-.72,14.51,14.51,0,0,1,1.65-.55,16.71,16.71,0,0,1,1.7-.39c.57-.11,1.13-.18,1.66-.23v.13l4.17,4.17c-.05,1.38-.1,2.7-.14,3.94.19-1,.42-2.18.66-3.55.3-1.68.63-3.55,1-5.58s.71-4.22,1.09-6.52.74-4.66,1.11-7.06q.47-3.94.88-7.26t.73-5.92c.21-1.73.39-3.2.54-4.4s.26-2.12.34-2.72.22-1.56.35-2.46.28-1.82.42-2.74.28-1.83.42-2.71.27-1.66.38-2.34c1.45-.22,3-.47,4.57-.74s3.19-.55,4.79-.84,3.16-.59,4.7-.91,3-.62,4.31-.92l3.12,2v.11l4.17,3.83q.43,3.26.83,5.61c.26,1.56.51,2.9.75,4q.56,2.52,1.35,5.41c.53,1.92,1.14,4,1.85,6.23l2.65,8.89,0,.07c.56,1.76,1.13,3.53,1.69,5.3s1.14,3.54,1.72,5.3c.14.49.49,1.48,1,2.94.46,1.21,1.07,2.78,1.83,4.73q3.06-3.69,6-7,3.13-3.51,6.25-6.69l1.84-1.84c.52-.53,1-1,1.4-1.38.66-.65,1.2-1.2,1.6-1.64a8.18,8.18,0,0,0,.83-1,111.28,111.28,0,0,0-9.42-13.16c-.15-.16-.36-.38-.61-.67l-.8-.92-.94-1q-.43-.48-.63-.72l14.2-15.49.08.16a.91.91,0,0,0,.07.14l4.07,4q2.11,3.81,4,7t3.63,6q2.28-2.37,4.72-5.37c1.62-2,3.33-4.24,5.12-6.74a26.19,26.19,0,0,1,3.08,2.25,28.54,28.54,0,0,1,2.61,2.53L246,43.09c.36.35.69.71,1,1.07s.6.72.89,1.09a6,6,0,0,0,.39.49l.39.46a46.12,46.12,0,0,0,7,5.42l-.06.06Z"/><path class="cls-5" d="M75.93,55.33A12.78,12.78,0,0,0,67,55.24a31.62,31.62,0,0,0,1,9.31q10.27-1.19,10.63-5.18A4.48,4.48,0,0,0,75.93,55.33Zm0,0A12.78,12.78,0,0,0,67,55.24a31.62,31.62,0,0,0,1,9.31q10.27-1.19,10.63-5.18A4.48,4.48,0,0,0,75.93,55.33Zm22.86-4.58-.21-.27c-.24-.28-.49-.56-.74-.82l-.76-.77L94.39,46.2a33.2,33.2,0,0,0-8-6.63A31,31,0,0,0,77.07,36c-1.84-.24-3.59-.43-5.25-.55s-3.22-.19-4.72-.19A42.68,42.68,0,0,0,59,36a37,37,0,0,0-7.51,2.29c0,.55-.06,1.25-.06,2.08q0,3.61.51,11.07c.1,2.92.22,6.19.38,9.82s.33,7.49.53,11.6.41,8.39.65,12.86.49,9,.74,13.58l.11,0,4.19,4.19c.28,0,.78-.13,1.49-.28l2.6-.52,3.42-.73,4-.88,4.25-1c1.44-.33,2.86-.66,4.24-1l-.21-3.41q-.78-4.26-1.34-7.87c-.38-2.42-.68-4.65-.92-6.71q.47,0,.9-.12l1-.2,1.45-.32L81.54,80a20.05,20.05,0,0,0,6.3-2.22A32,32,0,0,0,94,73.3q7.74-6.48,7.74-13.72A16,16,0,0,0,98.79,50.75ZM80.23,75A24.57,24.57,0,0,0,83,73.8,21.39,21.39,0,0,1,80.23,75ZM83,73.8c.69-.35,1.38-.74,2.07-1.16C84.39,73.07,83.7,73.46,83,73.8Zm5.07-6.58q-5.62,5.1-11.3,6.1a77.31,77.31,0,0,1-7.71,1.39q.65,6.87,2.5,17l.11,1.23q-12.5,3-15.05,3.41-1.55-27.59-2.16-45.07-.64-9.8-.55-11.24,8.31-3.49,22.73-1.54A28.89,28.89,0,0,1,92.51,47.9Q99.18,58,88.08,67.22ZM75.93,55.33A12.78,12.78,0,0,0,67,55.24a31.62,31.62,0,0,0,1,9.31q10.27-1.19,10.63-5.18A4.48,4.48,0,0,0,75.93,55.33Z"/><path class="cls-5" d="M144.3,75.56v-.13c-.53,0-1.09.12-1.66.23a16.71,16.71,0,0,0-1.7.39,14.51,14.51,0,0,0-1.65.55,11.08,11.08,0,0,0-1.51.72l-3.28,1.5c-1,.47-1.88.88-2.64,1.25-.07-1.14-.15-2.25-.22-3.32s-.13-2.12-.19-3.14c-.18-1.63-.45-4.26-.81-7.87s-.8-8.21-1.32-13.78l-4.17-4.15v-.15l-3.29-2.14c-1.43.5-3,1-4.68,1.55L112,48.69l-5.14,1.59c-1.69.51-3.28,1-4.74,1.4q.57,2.46,1.17,5.21c.4,1.84.8,3.67,1.19,5.52s.76,3.64,1.11,5.4.66,3.39.93,4.87q.27,1.42.6,3.09c.22,1.12.45,2.29.69,3.53s.49,2.52.74,3.85.51,2.68.76,4,.51,3,.76,4.75.48,3.46.7,5.21.44,3.48.63,5.17.35,3.21.48,4.56l0,0,0,0,4.19,4.19q10.23-3.09,16.24-5c4-1.28,6.61-2.16,7.81-2.62,1.51-.41,2.82-.82,3.94-1.23a23.31,23.31,0,0,0,2.83-1.23q.67-1.8,1.27-16.58l0-.69c0-1.24.09-2.56.14-3.94ZM140.81,95a33.81,33.81,0,0,1-5.55,1.82q-2.94,1.26-21.12,6.78-.81-8.17-2.29-16.83c-1.08-5.77-2-10.62-2.79-14.54q-1.64-8.94-3.88-18.76Q114,50.88,122.63,48q1.59,16.73,2.13,21.63c.2,3.26.43,6.83.68,10.69l.47,5.32,4.76-2.06q1.7-1,8.26-3.94a13.59,13.59,0,0,1,2.73-1.37Q141.09,94.2,140.81,95Z"/><path class="cls-5" d="M168.39,55.22a64,64,0,0,0-1.14,10.46,6.94,6.94,0,0,0,3.26-.66Q169.27,59.52,168.39,55.22Zm0,0a64,64,0,0,0-1.14,10.46,6.94,6.94,0,0,0,3.26-.66Q169.27,59.52,168.39,55.22Zm27.24,26.17c-.76-2-1.37-3.52-1.83-4.73-.55-1.46-.9-2.45-1-2.94-.58-1.76-1.16-3.53-1.72-5.3s-1.13-3.54-1.69-5.3l0-.07-2.65-8.89c-.71-2.23-1.32-4.31-1.85-6.23s-1-3.73-1.35-5.41c-.24-1.1-.49-2.44-.75-4s-.54-3.44-.83-5.61l-4.17-3.83V29l-3.12-2c-1.34.3-2.78.61-4.31.92s-3.11.62-4.7.91-3.19.57-4.79.84-3.12.52-4.57.74c-.11.68-.24,1.46-.38,2.34s-.28,1.79-.42,2.71-.28,1.84-.42,2.74-.25,1.72-.35,2.46-.2,1.51-.34,2.72-.33,2.67-.54,4.4-.46,3.7-.73,5.92-.57,4.63-.88,7.26q-.56,3.6-1.11,7.06c-.38,2.3-.74,4.48-1.09,6.52s-.69,3.9-1,5.58c-.24,1.37-.47,2.55-.66,3.55,0,.24-.09.47-.13.68h.17l4.15,3.85c2.83.49,5.88,1.15,9.13,2s6.76,1.8,10.51,2.94q.1-2.56.24-4.71c.09-1.43.2-2.75.31-4a1.55,1.55,0,0,1,.08.23,2.56,2.56,0,0,1,.09.26c.13.38.25.77.38,1.17s.25.8.38,1.18l0,0,0,0,4.19,3.87a92.35,92.35,0,0,1,17.89-8.28l.35-.12ZM175.1,83.67a98.69,98.69,0,0,1-2.81-10.37,24.48,24.48,0,0,1-5.59,1.58,83.25,83.25,0,0,0-1.1,11.22,132.44,132.44,0,0,0-14.44-3.62q1.35-6.81,3.54-21.27,2-16.49,2.49-20.28.62-4.4,1.29-8.49,8.7-1.33,16.73-3.15c.59,4.33,1.13,7.59,1.61,9.76q1.08,4.86,3.26,11.81l2.64,8.93,3.43,10.63q.47,1.71,2.58,7A69.9,69.9,0,0,0,175.1,83.67Zm-7.85-18a6.94,6.94,0,0,0,3.26-.66q-1.24-5.5-2.12-9.8A64,64,0,0,0,167.25,65.68Z"/><path class="cls-5" d="M255.67,51.68l.06-.06a46.12,46.12,0,0,1-7-5.42l-.39-.46a6,6,0,0,1-.39-.49c-.29-.37-.58-.73-.89-1.09s-.64-.72-1-1.07l-3.24-3.24a28.54,28.54,0,0,0-2.61-2.53,26.19,26.19,0,0,0-3.08-2.25c-1.79,2.5-3.5,4.74-5.12,6.74s-3.2,3.79-4.72,5.37q-1.73-2.72-3.63-6t-4-7l-4.07-4a.91.91,0,0,1-.07-.14l-.08-.16-14.2,15.49q.19.24.63.72l.94,1,.8.92c.25.29.46.51.61.67a111.28,111.28,0,0,1,9.42,13.16,8.18,8.18,0,0,1-.83,1c-.4.44-.94,1-1.6,1.64-.41.4-.88.85-1.4,1.38l-1.84,1.84q-3.1,3.18-6.25,6.69-3,3.3-6,7l-.4.48c.2.32.39.65.58,1,1.94,3.24,3.65,6.42,5.15,9.51a99.71,99.71,0,0,1,4.22,10.07s0,0,0,0l0,0,4.2,4.19,3-3.39,3.21-3.6,3.24-3.64L222,92.39l2.84-3.21,2.41-2.72c.78-.84,1.57-1.69,2.39-2.53s1.7-1.71,2.63-2.63l0,0,16.74-15.67,1.51-1.35,1.5-1.36c.53-.38,1.44-1.15,2.72-2.3s3-2.73,5.05-4.7Zm-9.36,5-3.11,2.8L226.37,75.27c-1.86,1.83-3.58,3.59-5.14,5.29q-6.42,7.27-15.1,17a87.69,87.69,0,0,0-7.79-15.43q5.28-6.36,11.37-12.61T216.57,62a109.68,109.68,0,0,0-10.44-14.94l-1.56-1.71,10.28-11.22a171.26,171.26,0,0,0,11.24,17.71A84.08,84.08,0,0,0,237.74,38.5a18.33,18.33,0,0,1,4,4.08q6,7,9.86,9.46A57.53,57.53,0,0,1,246.31,56.72Z"/></g></g></svg>
