<svg xmlns="http://www.w3.org/2000/svg" width="1600" height="900" viewBox="0 0 1600 900"><defs><style>.cls-1{fill:#282418;}.cls-2{fill:#ffe695;}.cls-3{fill:#ffc72e;}.cls-4{fill:#f09f01;}.cls-5{fill:#ffad01;}.cls-6{fill:#fff4bf;}</style></defs><title>start</title><g id="start"><circle class="cls-1" cx="579" cy="219" r="104"/><circle class="cls-1" cx="592" cy="226" r="110"/><circle class="cls-2" cx="578.5" cy="218.5" r="100.5"/><circle class="cls-3" cx="578.5" cy="218.5" r="97.99"/><circle class="cls-4" cx="578.5" cy="218.5" r="81.24"/><circle class="cls-5" cx="578.5" cy="218.5" r="78.72"/><path class="cls-6" d="M583.39,207.65l-5.23-19.41c4.45-.17,8.52-.57,13.65,2.39l5.48-11.88c-8.22-4.6-16.25-6.76-24.07-5.66L571,165l-6.47,1.74,2.18,8.09c-33.25,15-17.2,48.87,13,48.52l5.67,21c-7.58.88-14.2-1.37-20.4-4.92l-6.67,13.93c9,5.12,18.91,7.93,31,5.55l2.17,8.08,6.47-1.74-2.17-8.08C622.2,242.3,616.73,209.08,583.39,207.65Zm-9-1.06c-11-2.24-13.62-12-4.35-16.17Zm16.92,37.08-5.22-19.41C598.76,227.39,601.17,233.66,591.34,243.67Z"/><path class="cls-5" d="M487,349.8l-21.59-67.94q-44.15,61.39-67.7,53.23a76,76,0,0,1-9.42-3.81q-17.85-19.41-4.42-59.08,3.78-13.41,18-25T435,238.84l-15.07-95.37q-41.76,10-68.31,45.89-17.08,22.23-26.05,43.6-19.29,46.53-16.21,90.12Q310.61,338,316.87,356a94.1,94.1,0,0,0,11,19.43q20.94,25.36,49,32.58,23.94,4.63,48.63-4.63Q455.27,389.59,487,349.8Z"/><path d="M487.93,275.32,469,260.2l-.22-.89-1.67,2.28c-.56.75-1.09,1.51-1.59,2.26L446.92,146.07,428,130.86l-.09-.54a178.52,178.52,0,0,0-21.4,6.56,156.61,156.61,0,0,0-19.29,8.8c-.42.19-.85.4-1.29.65l-1.28.75L381.43,149c-2.52,1.48-5,3-7.29,4.64s-4.64,3.29-6.9,5a.22.22,0,0,1-.15.11c-.7.6-1.38,1.16-2.06,1.69s-1.36,1.1-2.06,1.69a129.49,129.49,0,0,0-19.22,20.36A256,256,0,0,0,328,205.56a180.42,180.42,0,0,0-11.66,22.74q-20.28,48.88-17,95.38c.16,2.18.47,4.73.91,7.66a160,160,0,0,0,7.39,28.71A131.85,131.85,0,0,0,313.49,372a86.72,86.72,0,0,0,6.81,10.49,118.59,118.59,0,0,0,23.91,22.16L357.06,415a97.22,97.22,0,0,0,37.3,18.84,92.73,92.73,0,0,0,32.27.7,108.6,108.6,0,0,0,21.77-5.78q32-14.78,68.8-60.92Zm-38.5-10.63q5.49.58,14,1.95-19.11,26-33.13,40.46t-22.84,17.33q-2-13.19,4.82-33.13,3-10.47,14.71-20.13a38.71,38.71,0,0,1,7.08-4.38,26.54,26.54,0,0,1,7.48-2.33A34.29,34.29,0,0,1,449.43,264.69ZM425.52,403.37q-24.69,9.25-48.63,4.63-28-7.22-49-32.58a94.1,94.1,0,0,1-11-19.43q-6.25-18-7.52-32.91-3.08-43.59,16.21-90.12,9-21.36,26.05-43.6,26.55-35.88,68.31-45.89L435,238.84q-18.94-3.27-33.13,8.33t-18,25q-13.42,39.68,4.42,59.08a76,76,0,0,0,9.42,3.81q23.55,8.18,67.7-53.23L487,349.8Q455.25,389.6,425.52,403.37Z"/><path class="cls-5" d="M749.65,316.56q28.22-19.33,56.43-22.05-10.26-64.8-13.59-154.43-8.67,10.59-78.12,29.48Q732,252,749.65,316.56Z"/><path class="cls-5" d="M778.7,124.64q11.89-14.19,10.86-30.47-2.49-10.35-6-16.16a31.8,31.8,0,0,0-9.32-9.87q-8.91-6-27.1-4.88a80.2,80.2,0,0,0-24.33,10q-24,18-18.68,47.17,3.33,14.82,11.08,20.34,14.63,9.26,26.89,6.29A75.4,75.4,0,0,0,778.7,124.64Z"/><path d="M834.18,303.82q-4.75-31.4-7.95-68.5t-4.82-80l-13.8-11q12.06-16.52,10.86-36.06-3.16-13.11-7.66-20.5a47.28,47.28,0,0,0-4.41-6.08,36.49,36.49,0,0,0-5.36-5.1L785.3,63.89c-.92-.9-1.88-1.75-2.87-2.55s-2-1.57-3.09-2.33q-11.73-7.95-33-6.64l-1.56.23A92.6,92.6,0,0,0,717.29,64q-29.64,22.11-22.93,58.55a61.48,61.48,0,0,0,6.09,16.56A33,33,0,0,0,710.06,150l1.39.89L719,157q-3.88,1-8,2.22t-8.49,2.3q2.92,13.78,6.35,28.82T715.86,221q3.61,15.56,7.35,31t7.38,30q3.63,14.55,7,27.67T744,333.49a.53.53,0,0,1,.39-.24l18.9,15.21a237.5,237.5,0,0,1,32-18.76q14.5-6.84,26.43-8.65l2.82-.33c1.43-.16,3-.31,4.64-.47s3.21-.31,4.65-.44,2.38-.22,2.82-.29Zm-119-163q-7.74-5.52-11.08-20.34-5.37-29.2,18.68-47.17a80.2,80.2,0,0,1,24.33-10q18.2-1.11,27.1,4.88A31.8,31.8,0,0,1,783.57,78q3.49,5.8,6,16.16,1.05,16.27-10.86,30.47a75.4,75.4,0,0,1-36.59,22.44Q729.84,150.05,715.22,140.79Zm34.43,175.77Q732,252,714.37,169.56q69.45-18.88,78.12-29.48,3.33,89.63,13.59,154.43Q777.87,297.23,749.65,316.56Z"/><path class="cls-5" d="M1047.89,49.9a563.57,563.57,0,0,1-66.52,25q-3,51.66-6.55,87.17-7-13.06-15.52-28.48-22.38-45.34-40.93-88.23L862.65,67.09q-3.15,83.55-3.54,120.32-.61,39.28-4.34,102.35,39-11.52,61.42-19.69l-.06-52.58.67-43.25q28.91,58.39,58,104.27,21.11-13.58,42-18Q1027.2,158.78,1047.89,49.9Z"/><path d="M1063.06,55.58,1047.34,43l-3.42-3.15q-14.16,6.55-32.11,13.13T971.75,66.41q-.64,10.2-1.23,20.43T969.24,107Q961.82,91.32,955,76.07T942.44,47.46L923.65,32.41a1,1,0,0,1-.14-.39,1,1,0,0,0-.15-.39L852.87,59.22q-.78,20.4-1.39,39.35t-1.1,35.51q-.48,16.54-.83,30T849.11,187q-.11,6.52-.36,14.83t-.66,17.86q-.39,9.56-.87,20.05t-1,21.35q-.54,10.88-1.15,21.84t-1.21,21.43a1.59,1.59,0,0,1,.57-.18l18.89,15.21q6.54-1.9,14.09-4.24l15.4-4.77q7.85-2.43,15.59-4.9t14.69-4.75q6.93-2.3,12.62-4.21t9.43-3.31c0-3.18-.06-6.59-.07-10.22s0-7.36,0-11.15,0-7.64,0-11.53,0-7.69,0-11.42q6.39,11.06,13,22t13.81,22.22a.49.49,0,0,1,.3-.23l19,15.29a197.39,197.39,0,0,1,27.09-14.62,133.78,133.78,0,0,1,26.65-8.58q5.61-54.55,13.53-108.89t18.16-108.31Zm-46.27,204.91q-20.88,4.45-42,18-29.1-45.87-58-104.27l-.67,43.25.06,52.58q-22.41,8.18-61.42,19.69,3.74-63.07,4.34-102.35.39-36.78,3.54-120.32l55.72-21.76q18.55,42.89,40.93,88.23Q967.78,149,974.82,162q3.52-35.5,6.55-87.17a563.57,563.57,0,0,0,66.52-25Q1027.19,158.77,1016.79,260.49Z"/><path class="cls-3" d="M454.44,605.06l-11.68-15.5,0-1-1.56,2.65c-.53.88-1,1.76-1.51,2.63l3.43-130.43-11.82-16.37v-.6a123.66,123.66,0,0,0-16.85,8.07,131.22,131.22,0,0,0-15.6,10.61c-.34.23-.69.49-1.06.79s-.71.59-1.05.89L394,469.07c-2.09,1.77-4.12,3.62-6.08,5.53s-3.91,3.92-5.84,6c-.05.08-.09.13-.13.14-.6.7-1.19,1.37-1.77,2s-1.17,1.3-1.77,2a176.53,176.53,0,0,0-17.13,24.05q-8.13,13.6-14.9,27.23t-11.8,26.82q-21.76,57.72-25.76,111.55c-.18,2.51-.31,5.46-.39,8.82a257.2,257.2,0,0,0,1.46,32.67q1.13,7.05,2.64,13.28a93.89,93.89,0,0,0,3.53,11.49q6.17,14.19,14.4,23.18l7.94,10.56Q348.9,788.24,363,791.86q11.19,1.82,23.42-2.84a81.22,81.22,0,0,0,16.71-9c17-13.41,36.7-38.53,59.16-75.1Zm-26.79-9.15c2.63.2,6,.6,10,1.22q-17.87,30.47-30.26,47.81t-19.27,21.42q.42-14.77,8.3-37.86,3.74-12,13.73-23.77a41,41,0,0,1,5.85-5.41,20,20,0,0,1,5.84-3.13A17,17,0,0,1,427.65,595.91Z"/><path class="cls-3" d="M590.5,525.94,602,540.59q-5.64,85.2-8.35,95.11A109.63,109.63,0,0,1,585.1,644q-5,4.44-11.77,9.52-5.42,5-23.37,19.9T501.6,713.57l-11.53-14.49a.82.82,0,0,1-.16.15.93.93,0,0,0-.15.15q-.22-9.06-.63-20.3t-1-23q-.56-11.71-1.22-23.16t-1.43-21q-.78-9-1.58-17.86l-1.56-17q-.76-8.19-1.47-15.58t-1.29-13.69q-.83-9.89-2-21.63t-2.44-24q-1.29-12.29-2.66-24.54t-2.69-23.2q6.63-4.81,14.28-10.53t15.52-11.63q7.86-5.9,15.5-11.66t14.19-10.87l9.4,7.11,0,.67L550.38,433q.87,37.23,1.52,61.23t1,34.78q0,6.79,0,13.94t0,14.75q3.48-3.56,8-8.1t9.95-9.8a52.32,52.32,0,0,1,4.57-4.61,59,59,0,0,1,5-4c1.69-1.21,3.39-2.32,5.1-3.31a44.41,44.41,0,0,1,4.95-2.51Z"/><path class="cls-3" d="M689.87,421.88l8.41,10.54q-5.79,43.82-9.48,81.59t-5.31,69.48l-.82,15.85c-.33.11-1,.3-2.1.58s-2.23.58-3.47.92-2.4.65-3.47,1-1.78.52-2.11.63q-9,3.08-20.71,11.64A256,256,0,0,0,624.47,637L613.09,623a.65.65,0,0,0-.32.3q-.48-11-.87-24.42t-.77-28.41q-.37-15-.68-30.93t-.53-32.08q-.21-16.14-.37-31.76t-.16-30c2.27-1,4.49-1.92,6.64-2.91s4.24-1.9,6.26-2.79l-4.58-6-.89-.86a25.36,25.36,0,0,1-5.39-11A74.13,74.13,0,0,1,609.52,405c.49-25.46,9.24-46.35,26.26-62.51A75.52,75.52,0,0,1,658,329.71l1.2-.29q16-2,23.48,5.89c.67.74,1.31,1.51,1.92,2.3a27.53,27.53,0,0,1,1.72,2.54L696,352.63a24.86,24.86,0,0,1,3.15,5,40.36,40.36,0,0,1,2.29,6.06q2.13,7.39,2.34,20.66A84.91,84.91,0,0,1,689.87,421.88Z"/><path class="cls-3" d="M847.57,469.07l-11.33-13.58v-.84L834.6,457c-.55.77-1.07,1.54-1.57,2.29l6.39-114.17-11.48-14.44,0-.52a132.25,132.25,0,0,0-32.93,16.11c-.34.2-.7.42-1.07.68l-1.08.78-2.73,1.94c-2.13,1.54-4.2,3.15-6.21,4.81s-4,3.41-6,5.22c-.05.07-.09.11-.13.12-.62.61-1.23,1.19-1.82,1.74s-1.2,1.13-1.81,1.75a161,161,0,0,0-17.69,21Q748.1,396.19,741,408.13t-12.41,23.52q-23,50.69-28.21,98.06c-.23,2.21-.43,4.8-.58,7.76a199.32,199.32,0,0,0,.74,28.74c.65,4.13,1.43,8,2.35,11.67A72.39,72.39,0,0,0,706.19,588a69.2,69.2,0,0,0,13.88,20.34l7.7,9.24q10.14,12.12,24.13,15.23a51.27,51.27,0,0,0,23.47-2.61,88.71,88.71,0,0,0,16.89-7.94c17.28-11.82,37.55-33.86,60.84-65.88Zm-16.57-7q-18.57,26.63-31.35,41.81T779.9,522.68q.75-12.94,9.14-33.18,4-10.54,14.27-20.8a41.05,41.05,0,0,1,6-4.73,21.5,21.5,0,0,1,5.93-2.72A19.36,19.36,0,0,1,821,461C823.61,461.19,827,461.55,831,462.11Z"/><path class="cls-3" d="M1014.29,489.23l11.16,12.48q-8,10.47-14.77,20.17t-12.1,18.71Q986.3,558.28,978,560.81c-.42-.46-.86-.93-1.33-1.42s-1-1-1.49-1.62l-8.34-9.3-.19.06q-2.89-3-6.9-7.93t-9.07-12q-.21,8.69-.45,17.62t-.43,17.58q-.19,8.64-.41,16.77c-.14,5.42-.27,10.43-.37,15.06a88.38,88.38,0,0,0-11.16-1.66,101.31,101.31,0,0,0-12.05-.36,82.38,82.38,0,0,0-14.12,2q-8.43,1.8-19.54,5.32l-10.24,3.26-11.17-12.76-.37.12q3.35-50.67,3.13-112.35-.27-62-4.24-135.68,6.1-3.56,12.94-7.49T896,328.06l13.94-7.9,13.11-7.41q6.2-3.48,11.38-6.37t8.79-4.85l0,.67,11.4,13.94q0,3.32-.15,8c-.08,3.16-.17,6.71-.28,10.67s-.24,8.27-.38,12.94-.31,9.58-.51,14.72q5-7,10.29-15t11.15-17.18l4.87,6.25,6.61,7.95,31.22,39.29q-7,10-13.75,19.7t-12.48,17.95q-5.75,8.25-10.18,14.48t-6.77,9.34l-1.18,1.39-.34.37c-.07.07-.16.18-.27.31s-.4.54-.86,1.19l.55.47c.17.14.36.29.55.46.58.55,1.16,1.09,1.74,1.61s1.13,1.06,1.67,1.62c.35.35.72.7,1.12,1.08s.78.74,1.13,1.08q4.83,4.69,10.08,9.64T998.52,474q4.85,4.63,9,8.54l6.91,6.45Z"/><path class="cls-3" d="M1172.64,339.24q-1.14,7.06-2,13.7l-1.23,7.76q-.4,2.42-.78,5.38c-.25,2-.51,4.12-.76,6.42l0,.15c0,.51-.13,1.26-.24,2.23s-.22,2-.32,3.06-.21,2.08-.32,3-.18,1.66-.23,2.11a38.41,38.41,0,0,1-6.18,5.13,18.9,18.9,0,0,1-6,2.68c-1,.24-2.19.48-3.54.71s-2.83.42-4.45.55a29.67,29.67,0,0,1-3,.85l-3.9.91c-1.23.28-2.49.57-3.8.85l-4.61,1,4.22,4.69q-2.65,11.36-4.22,20.39t-2.21,16.06c-.06.67-.13,1.57-.21,2.69s-.17,2.36-.25,3.68l.57-.14a10.15,10.15,0,0,1,1.33-.42l1.39-.35a18.38,18.38,0,0,1,5.09-.43,45.84,45.84,0,0,1,7.18,1c0,.11,0,.17-.05.2a.4.4,0,0,0,0,.2l11.06,11.84q-1.08,6.15-2.15,12.63t-2,12.45q-1,6-1.8,11.05t-1.32,8.32c-.21,1.34-.46,3.08-.77,5.21s-.62,4.34-.94,6.62-.65,4.49-1,6.63-.58,3.82-.73,5.05A501.88,501.88,0,0,0,1095,541.38a461.55,461.55,0,0,0-46.9,23.75L1037,553.22c-.09.07-.14.12-.16.12a.77.77,0,0,0-.16.13q.29-15,.56-32.21t.5-35.22q.23-18,.35-36.19t.21-35.24c0-1.63.05-4.48.13-8.54s.21-9.29.39-15.65q-.63-31.92.65-48,.33-4.2.77-7.32a119.8,119.8,0,0,1,22.88-6.93q7.51-1.54,18.31-3.54,16.59-3.79,35.45-9.23t39.81-12.48l7.47,8.61a.22.22,0,0,1,0,.13.21.21,0,0,0,0,.12L1168,316l7.35,8.39Q1173.76,332.17,1172.64,339.24Z"/><path class="cls-3" d="M1304,435.57l-40.12,56.6L1253,481.25l-.14.18-15.44-16.77a14.35,14.35,0,0,0,.14,1.56c.07.48.12.93.16,1.35a109.35,109.35,0,0,1,.19,11.19q-.17,7.42-.89,18.82a275.45,275.45,0,0,0-27.3-4.16,224.24,224.24,0,0,0-26.13-1.14l-10.86-11.35a.6.6,0,0,1-.22,0,.6.6,0,0,0-.22,0q.18-3.06.47-7.87t.51-10.57q.23-5.76.45-12.07t.31-12.4q.15-8.46.15-21.22t-.09-29.42q0-1.64-.06-4.83c0-2.12-.06-4.62-.1-7.46s-.08-6-.12-9.46-.1-7.06-.16-10.84a167.24,167.24,0,0,1,21.11-26.61,161,161,0,0,1,26.28-21.56l.87-.54a87.55,87.55,0,0,1,10-4.32,64.65,64.65,0,0,1,9.81-2.73,49.75,49.75,0,0,1,6-.78c1.94-.12,3.86-.17,5.78-.15q15.27.57,21.83,10.06l9.29,10.08a26.55,26.55,0,0,1,2.67,3.61q3.49,8.07,2.32,18.9-1.82,16.65-15,40.49-2.43,3.69-4.17,6.28l-3.24,4.88c-1,1.51-2,3-3.08,4.48s-2.26,3.17-3.66,5.07q6.52,5.36,14.72,11t18.13,11.28l-.21.27Z"/><path d="M454.44,605.06l-11.68-15.5,0-1-1.56,2.65c-.53.88-1,1.76-1.51,2.63l3.43-130.43-11.82-16.37v-.6a123.66,123.66,0,0,0-16.85,8.07,131.22,131.22,0,0,0-15.6,10.61c-.34.23-.69.49-1.06.79s-.71.59-1.05.89L394,469.07c-2.09,1.77-4.12,3.62-6.08,5.53s-3.91,3.92-5.84,6c-.05.08-.09.13-.13.14-.6.7-1.19,1.37-1.77,2s-1.17,1.3-1.77,2a176.53,176.53,0,0,0-17.13,24.05q-8.13,13.6-14.9,27.23t-11.8,26.82q-21.76,57.72-25.76,111.55c-.18,2.51-.31,5.46-.39,8.82a257.2,257.2,0,0,0,1.46,32.67q1.13,7.05,2.64,13.28a93.89,93.89,0,0,0,3.53,11.49q6.17,14.19,14.4,23.18l7.94,10.56Q348.9,788.24,363,791.86q11.19,1.82,23.42-2.84a81.22,81.22,0,0,0,16.71-9c17-13.41,36.7-38.53,59.16-75.1Zm-26.79-9.15c2.63.2,6,.6,10,1.22q-17.87,30.47-30.26,47.81t-19.27,21.42q.42-14.77,8.3-37.86,3.74-12,13.73-23.77a41,41,0,0,1,5.85-5.41,20,20,0,0,1,5.84-3.13A17,17,0,0,1,427.65,595.91ZM390.06,754Q370.69,767,353.88,764.32q-19.47-5.36-31.24-32.53a108,108,0,0,1-5.39-21.45,222.08,222.08,0,0,1-1-37.46q3.76-50.25,24.48-105.19a328.23,328.23,0,0,1,25.4-51.38q24.76-42.07,57.23-54.81l-2.65,106.38q-13.51-2.53-25.66,11.44T378.27,608.9c-10.35,30.76-12,53.1-5.15,66.85a34,34,0,0,0,6.37,3.52c10.73,4.81,29.85-17.14,57.43-65.3l5.9,73.89Q413.75,735.25,390.06,754Z"/><path d="M590.5,523.94l0-.56a44.41,44.41,0,0,0-4.95,2.51c-1.71,1-3.41,2.1-5.1,3.31a59,59,0,0,0-5,4,52.32,52.32,0,0,0-4.57,4.61q-5.38,5.25-9.95,9.8t-8,8.1q0-7.62,0-14.75t0-13.94q-.37-10.8-1-34.78T550.38,431L538.7,415.54l0-.67-9.4-7.11q-6.54,5.13-14.19,10.87t-15.5,11.66q-7.86,5.93-15.52,11.63t-14.28,10.53q1.32,10.95,2.69,23.2t2.66,24.54q1.29,12.27,2.44,24t2,21.63q.58,6.28,1.29,13.69t1.47,15.58l1.56,17q.79,8.82,1.58,17.86.76,9.53,1.43,21t1.22,23.16q.55,11.7,1,23t.63,20.3a.93.93,0,0,1,.15-.15.82.82,0,0,0,.16-.15l11.53,14.49Q532,686.45,550,671.46t23.37-19.9q6.75-5.07,11.77-9.52a109.63,109.63,0,0,0,8.56-8.34q2.7-9.94,8.35-95.11Zm-14,89.64q-3.66,4-16.62,13.72c-5.91,5.72-27,23.11-63.1,52.55q-1-36.39-3.9-74.49-3.37-38.08-5.86-64.09-3.39-39.69-8.51-83.23,26.44-19.29,52.64-39.77,1.9,74.93,2.67,96.65,0,21.92.15,47.82l.44,23.57,14.38-13.87q5.16-6.11,25-25.5,7.25-8.27,8.31-8.68Q577.5,609.94,576.54,613.58Z"/><path d="M703.78,384.38q-.21-13.28-2.34-20.66a40.36,40.36,0,0,0-2.29-6.06,24.86,24.86,0,0,0-3.15-5l-9.64-12.48a27.53,27.53,0,0,0-1.72-2.54c-.61-.79-1.25-1.56-1.92-2.3q-7.44-7.85-23.48-5.89l-1.2.29a75.52,75.52,0,0,0-22.26,12.77c-17,16.16-25.77,37-26.26,62.51a74.13,74.13,0,0,0,1.91,17.19,25.36,25.36,0,0,0,5.39,11l.89.86,4.58,6q-3,1.34-6.26,2.79c-2.15,1-4.37,1.95-6.64,2.91q0,14.37.16,30t.37,31.76q.23,16.13.53,32.08t.68,30.93q.36,15,.77,28.41t.87,24.42a.65.65,0,0,1,.32-.3L624.47,637a256,256,0,0,1,26.34-22.9q11.7-8.57,20.71-11.64c.33-.11,1-.32,2.11-.63s2.23-.63,3.47-1,2.39-.64,3.47-.92,1.77-.47,2.1-.58l.82-15.85q1.62-31.72,5.31-69.48t9.48-81.59l-8.41-10.54A84.91,84.91,0,0,0,703.78,384.38ZM664.43,576.61q-21.1,5.49-44.82,28.41-2.68-66.07-2.68-151.55,54.32-23.81,62.44-35.11Q667.36,510.6,664.43,576.61Zm7.23-173.48q-13.57,17.7-30.67,25.2-9.54,3.76-18.89-5.16-4.86-5.42-5-20.87.61-30.54,21.32-50.31a66.07,66.07,0,0,1,19.68-11.26q13.7-1.74,19.36,4.17a23.58,23.58,0,0,1,5.34,9.86q1.65,5.87,1.83,16.43Q682.77,387.92,671.66,403.13Z"/><path d="M847.57,469.07l-11.33-13.58v-.84L834.6,457c-.55.77-1.07,1.54-1.57,2.29l6.39-114.17-11.48-14.44,0-.52a132.25,132.25,0,0,0-32.93,16.11c-.34.2-.7.42-1.07.68l-1.08.78-2.73,1.94c-2.13,1.54-4.2,3.15-6.21,4.81s-4,3.41-6,5.22c-.05.07-.09.11-.13.12-.62.61-1.23,1.19-1.82,1.74s-1.2,1.13-1.81,1.75a161,161,0,0,0-17.69,21Q748.1,396.19,741,408.13t-12.41,23.52q-23,50.69-28.21,98.06c-.23,2.21-.43,4.8-.58,7.76a199.32,199.32,0,0,0,.74,28.74c.65,4.13,1.43,8,2.35,11.67A72.39,72.39,0,0,0,706.19,588a69.2,69.2,0,0,0,13.88,20.34l7.7,9.24q10.14,12.12,24.13,15.23a51.27,51.27,0,0,0,23.47-2.61,88.71,88.71,0,0,0,16.89-7.94c17.28-11.82,37.55-33.86,60.84-65.88Zm-16.57-7q-18.57,26.63-31.35,41.81T779.9,522.68q.75-12.94,9.14-33.18,4-10.54,14.27-20.8a41.05,41.05,0,0,1,6-4.73,21.5,21.5,0,0,1,5.93-2.72A19.36,19.36,0,0,1,821,461C823.61,461.19,827,461.55,831,462.11ZM779.82,599.44q-19.64,11.53-36.39,9.22Q724.1,604,712.92,580.18A85.16,85.16,0,0,1,708,561.33a171.39,171.39,0,0,1-.13-33q4.86-44.19,26.79-92.44a281.82,281.82,0,0,1,26.56-45q25.72-36.78,58.53-47.69l-5.06,93.21q-13.46-2.26-25.92,9.94t-17.49,25.89c-11,27-13.24,46.59-6.65,58.65a33.84,33.84,0,0,0,6.29,3.08c10.63,4.22,30.23-15,58.91-57.17l4.22,64.63C814,569.13,795.89,588.52,779.82,599.44Z"/><path d="M1014.29,489.23l.14-.2-6.91-6.45q-4.15-3.91-9-8.54t-10.09-9.57q-5.25-5-10.08-9.64c-.35-.34-.72-.7-1.13-1.08s-.77-.73-1.12-1.08c-.54-.56-1.09-1.1-1.67-1.62s-1.16-1.06-1.74-1.61c-.19-.17-.38-.32-.55-.46l-.55-.47c.46-.65.74-1.05.86-1.19s.2-.24.27-.31l.34-.37,1.18-1.39q2.34-3.11,6.77-9.34t10.18-14.48q5.74-8.24,12.48-17.95t13.75-19.7L986.2,344.49l-6.61-7.95-4.87-6.25q-5.85,9.19-11.15,17.18t-10.29,15q.3-7.71.51-14.72t.38-12.94c.11-4,.2-7.51.28-10.67s.12-5.83.15-8L943.2,302.2l0-.67q-3.6,2-8.79,4.85t-11.38,6.37L910,320.16,896,328.06q-7,4-13.86,7.91t-12.94,7.49q4,73.73,4.24,135.68.22,61.73-3.13,112.35l.37-.12,11.17,12.76,10.24-3.26q11.11-3.51,19.54-5.32a82.38,82.38,0,0,1,14.12-2,101.31,101.31,0,0,1,12.05.36A88.38,88.38,0,0,1,949,595.59c.1-4.63.23-9.64.37-15.06s.28-11,.41-16.77.27-11.63.43-17.58.31-11.83.45-17.62q5.05,7.07,9.07,12t6.9,7.93l.19-.06,8.34,9.3c.52.59,1,1.12,1.49,1.62s.91,1,1.33,1.42q8.32-2.5,20.61-20.22,5.37-9,12.1-18.71t14.77-20.17Zm-31.93,34q-9.66,13.93-12.11,14.67-4.11-4-15.12-20c-2.35-2.08-6.61-7.39-12.79-16l-9.68-12.81-1.92,81.8q-1.1-.15-14,0T878.53,579c4.05-61.14,3.7-137.53-1.2-229.92Q913.95,328,935.47,316q-.12,23.08-3.45,85.62Q951,381.26,973.9,345.11l21.81,27.66c-18.58,27-31,44.77-37.2,53.09q-4.31,5.38-10.22,13.49,4.25,5.7,19,18.84c15.59,14.93,27.52,26.23,35.82,34A342.39,342.39,0,0,0,982.36,523.2Z"/><path d="M1168,316l-3.85-4.29a.21.21,0,0,1,0-.12.22.22,0,0,0,0-.13l-7.47-8.61q-20.94,7.08-39.81,12.48t-35.45,9.23q-10.8,2-18.31,3.54a119.8,119.8,0,0,0-22.88,6.93q-.43,3.12-.77,7.32-1.27,16.1-.65,48-.27,9.54-.39,15.65c-.08,4.06-.13,6.91-.13,8.54q-.07,17-.21,35.24t-.35,36.19q-.23,18-.5,35.22t-.56,32.21a.77.77,0,0,1,.16-.13s.07-.05.16-.12l11.06,11.91a461.55,461.55,0,0,1,46.9-23.75,501.88,501.88,0,0,1,49.41-18.31c.15-1.23.4-2.91.73-5.05s.65-4.35,1-6.63.63-4.49.94-6.62.56-3.87.77-5.21q.5-3.26,1.32-8.32t1.8-11.05q1-6,2-12.45t2.15-12.63l-11.06-11.84a.4.4,0,0,1,0-.2s0-.09.05-.2a45.84,45.84,0,0,0-7.18-1,18.38,18.38,0,0,0-5.09.43l-1.39.35a10.15,10.15,0,0,0-1.33.42l-.57.14c.08-1.32.16-2.55.25-3.68s.15-2,.21-2.69q.64-7,2.21-16.06t4.22-20.39l-4.22-4.69,4.61-1c1.31-.28,2.57-.57,3.8-.85l3.9-.91a29.67,29.67,0,0,0,3-.85c1.62-.13,3.11-.31,4.45-.55s2.53-.47,3.54-.71a18.9,18.9,0,0,0,6-2.68,38.41,38.41,0,0,0,6.18-5.13c0-.45.12-1.16.23-2.11s.22-1.95.32-3,.21-2.09.32-3.06.19-1.72.24-2.23l0-.15c.25-2.3.51-4.44.76-6.42s.51-3.77.78-5.38l1.23-7.76q.87-6.63,2-13.7t2.67-14.82Zm-16,25.37-1.12,7.51q-1,5.73-1.66,12.69l-.68,6q-1.92,2-12.13,2.85-3.4,1.14-16.25,3.72a143,143,0,0,1-16.9,5.51,94,94,0,0,0-17.17,7.41q-1.17,10.81-1.25,17.63,27.63-9.17,30.46-8.73a219.6,219.6,0,0,0-5.5,40.9l-27.42,10.7-.28,1.76q-1.4,13.35-1.69,20.95l.73.12q12.18-4.15,24-9.55a140.49,140.49,0,0,1,23.88-8.69c2.84-.93,5-1.26,6.5-1q-4.15,24.77-6.12,38l-2.18,15.4a406.49,406.49,0,0,0-82.68,35.06q1.1-60.15,1.4-127.8,0-4.87.57-23.82c-.5-26.15-.43-41.59.23-46.22q5.12-2.28,33.81-7.62,33.51-7.51,76.17-22.25Q1153.68,328,1152,341.4Z"/><path d="M1232.42,357.69q-.63-6.65-7-2.93-4.37,2.12-13.89,12.85c.21,5.38.41,9.29.63,11.73l1.28,10,4.46-4.89Q1233.22,365.63,1232.42,357.69Zm0,0q-.63-6.65-7-2.93-4.37,2.12-13.89,12.85c.21,5.38.41,9.29.63,11.73l1.28,10,4.46-4.89Q1233.22,365.63,1232.42,357.69Zm0,0q-.63-6.65-7-2.93-4.37,2.12-13.89,12.85c.21,5.38.41,9.29.63,11.73l1.28,10,4.46-4.89Q1233.22,365.63,1232.42,357.69Zm0,0q-.63-6.65-7-2.93-4.37,2.12-13.89,12.85c.21,5.38.41,9.29.63,11.73l1.28,10,4.46-4.89Q1233.22,365.63,1232.42,357.69Zm60.65,66.84.21-.27q-9.93-5.67-18.13-11.28t-14.72-11q2.1-2.85,3.66-5.07c1.05-1.47,2.07-3,3.08-4.48l3.24-4.88q1.74-2.6,4.17-6.28,13.18-23.88,15-40.49,1.17-10.83-2.32-18.9a26.55,26.55,0,0,0-2.67-3.61l-9.29-10.08q-6.55-9.48-21.83-10.06c-1.92,0-3.84,0-5.78.15a49.75,49.75,0,0,0-6,.78,64.65,64.65,0,0,0-9.81,2.73,87.55,87.55,0,0,0-10,4.32l-.87.54a161,161,0,0,0-26.28,21.56,167.24,167.24,0,0,0-21.11,26.61q.09,5.67.16,10.84t.12,9.46c0,2.84.07,5.34.1,7.46s0,3.74.06,4.83q.09,16.63.09,29.42t-.15,21.22q-.1,6.07-.31,12.4t-.45,12.07q-.22,5.76-.51,10.57t-.47,7.87a.6.6,0,0,1,.22,0,.6.6,0,0,0,.22,0l10.86,11.35a224.24,224.24,0,0,1,26.13,1.14,275.45,275.45,0,0,1,27.3,4.16q.74-11.4.89-18.82a109.35,109.35,0,0,0-.19-11.19c0-.42-.09-.87-.16-1.35a14.35,14.35,0,0,1-.14-1.56l15.44,16.77.14-.18,10.88,10.92,40.12-56.6ZM1254,468.45l-37.23-41.18c1.27,17.24,2.13,28.12,2.6,32.7a95.53,95.53,0,0,1,.16,15.55,180.6,180.6,0,0,0-39-3.9q.83-12.15,1.24-36.35.22-16.78.11-50.65-.06-6.51-.39-29,14.94-23.22,41.8-41.2,15-7.73,28-7.26,13.45.43,18,8.21c4.8,11.21,1,28-11.36,50.65q-10.11,15.32-19.27,27.89l5.56,6q14.85,15.39,37.79,28.94Zm-28.57-113.69q-4.37,2.12-13.89,12.85c.21,5.38.41,9.29.63,11.73l1.28,10,4.46-4.89q15.36-18.84,14.56-26.78Q1231.79,351,1225.38,354.76Zm7,2.93q-.63-6.65-7-2.93-4.37,2.12-13.89,12.85c.21,5.38.41,9.29.63,11.73l1.28,10,4.46-4.89Q1233.22,365.63,1232.42,357.69Zm0,0q-.63-6.65-7-2.93-4.37,2.12-13.89,12.85c.21,5.38.41,9.29.63,11.73l1.28,10,4.46-4.89Q1233.22,365.63,1232.42,357.69Zm0,0q-.63-6.65-7-2.93-4.37,2.12-13.89,12.85c.21,5.38.41,9.29.63,11.73l1.28,10,4.46-4.89Q1233.22,365.63,1232.42,357.69Zm0,0q-.63-6.65-7-2.93-4.37,2.12-13.89,12.85c.21,5.38.41,9.29.63,11.73l1.28,10,4.46-4.89Q1233.22,365.63,1232.42,357.69Z"/><path class="cls-2" d="M1166.68,699.1l0,.22a102.71,102.71,0,0,0-4.06-28,95.18,95.18,0,0,0-9.53-20.92,87.86,87.86,0,0,0-13.79-17.15,70.17,70.17,0,0,0-7.48-4.73q-1.69-2.1-3.48-4.08t-3.71-3.83q-13.14-9.81-27.85-10.64h-.59c-1.27,0-2.63.13-4.07.25s-2.75.24-3.92.38a76.48,76.48,0,0,0-14,2.85,57.71,57.71,0,0,0-11.9,5.12q-19.17,13.36-29.85,28.48-3.93,5.53-6.36,9.68a62.8,62.8,0,0,0-3.48,6.55q-5.11,10.19-10.46,28.2a146,146,0,0,0-3.71,22.4,109.64,109.64,0,0,0,.21,20.85l-8.39-7.23q-7.23-.82-13.58-1.46t-12-1q16.44-30.23,13.66-54.48c0-.37-.1-.74-.16-1.09s-.11-.71-.16-1.09a62.36,62.36,0,0,0-9.22-25.76,65.57,65.57,0,0,0-19.66-19.27,73.24,73.24,0,0,0-23.64-17.77q-16.56-4.41-30-2.87c-1.13.13-2.24.28-3.32.45s-2.16.39-3.23.66Q849.29,613.4,834.52,661a63.07,63.07,0,0,0-1.06,20.81q1.77,15.42,14.16,39.41l14.67,12.65q6.38-3.17,11.9-5.73t10.44-4.56q-2.83,4.62-6.08,9.5t-6.93,10.17q-15.14,23.65-12.79,44.15,1.11,9.75,11.4,28L884.89,828q16.68-17.73,45.57-21,23.81-2.73,68.54.1a91.34,91.34,0,0,1,2.36-30.77,158.08,158.08,0,0,1,9.88-28.31,76.1,76.1,0,0,0,9.78,21.41,52.48,52.48,0,0,0,16.43,14.87q15.08,18.54,37,18.17a144.15,144.15,0,0,0,16.75-4.42,50.88,50.88,0,0,0,11.42-5.32,119.86,119.86,0,0,0,15.53-10.33,172.64,172.64,0,0,0,15.6-13.85,161.83,161.83,0,0,0,18-22A84.47,84.47,0,0,0,1162,726.41a94.33,94.33,0,0,0,3.8-14.47A58.6,58.6,0,0,0,1166.68,699.1Zm-83.37,10.65a77.26,77.26,0,0,1,4.44-8v.07a24.37,24.37,0,0,1,3.93-5,37.83,37.83,0,0,1,5.38-4.34c-.37,1-.76,2-1.17,3.07s-.86,2.13-1.35,3.23q-6.4,12-14.15,18.38A54.25,54.25,0,0,1,1083.31,709.75Z"/><path class="cls-2" d="M1300.71,761.24l1.6,14q-13,4.21-23.51,6.77a152,152,0,0,1-18.6,3.49,90.11,90.11,0,0,1-18.88.12,106.87,106.87,0,0,1-20-4L1206.63,769q2.67-21.79,4.46-40.18T1213.7,695a230.92,230.92,0,0,0-41.07-25.59L1158,656.77a376.55,376.55,0,0,0,56.61-81.09,167.72,167.72,0,0,0,35.56.08q11.41-1.31,29.21-6.35l19.19,19.86a823.61,823.61,0,0,0-3.4,87.21Q1295.81,718.48,1300.71,761.24Z"/><path class="cls-2" d="M1458.76,754q-33,35.49-70.46,39.79l-2.42.24c-.87.07-1.68.13-2.42.17q-14.3,1.56-25.56-2.2a79.05,79.05,0,0,1-21.51-11.18l-13.12-13q-15.57-18.27-17.92-38.77a72,72,0,0,1,2-26.26,113.5,113.5,0,0,1,12.08-28.41q-16.07-13.27-19.44-42.82-3.18-27.78,20.1-62.31,28.34-35.82,67-43.76l.85-.09q16.83-1.36,30.17,3T1443.77,546Q1456,559.36,1465,586.9c.1.47.19,1,.27,1.72s.14,1.24.19,1.66a70.51,70.51,0,0,1-1.52,25.13,79.69,79.69,0,0,1-10.35,23.64c.26.3.5.6.73.88s.48.6.74,1q18,8.63,26.58,38.85c.12.66.24,1.45.37,2.39s.24,1.74.31,2.4Q1486.13,717.82,1458.76,754Z"/><path d="M1008.66,734.76l-8.39-7.23q-7.23-.82-13.58-1.46t-12-1q16.44-30.23,13.66-54.48c0-.37-.1-.74-.16-1.09s-.11-.71-.16-1.09a62.36,62.36,0,0,0-9.22-25.76,65.57,65.57,0,0,0-19.66-19.27,73.24,73.24,0,0,0-23.64-17.77q-16.56-4.41-30-2.87c-1.13.13-2.24.28-3.32.45s-2.16.39-3.23.66Q849.29,613.4,834.52,661a63.07,63.07,0,0,0-1.06,20.81q1.77,15.42,14.16,39.41l14.67,12.65q6.38-3.17,11.9-5.73t10.44-4.56q-2.83,4.62-6.08,9.5t-6.93,10.17q-15.14,23.65-12.79,44.15,1.11,9.75,11.4,28L884.89,828q16.68-17.73,45.57-21,23.81-2.73,68.54.1a91.34,91.34,0,0,1,2.36-30.77,158.08,158.08,0,0,1,9.88-28.31c1.15-2.57,2.39-5.18,3.7-7.83Zm-33.22,50.6q-83.55-5.25-103.73,16.39-13.17-23.21,6.31-53.43,28.18-40.1,32.81-62.62A23.89,23.89,0,0,0,912.05,675l-.15-.77q-1.75-10.11-14.32-10.18-7.71,6.46-5.66,18.62a40.72,40.72,0,0,1,4.35,12.61q-15.48-.09-45.43,14.79Q837.51,684.3,842,663.65q13.23-42.61,58.42-51.37,14.14-3.48,32.75,1.48,28.29,13.8,32.35,43,5.13,32.71-31.41,80.07,20.21-6.39,53.66-2.27Q973.11,764.44,975.44,785.36Z"/><path d="M1090.11,666.4q-16.54,6.69-23.59,17.88-11.83,19-10.08,34.31,3.81,13.1,12.28,13.78,19.88-4.71,33-29.7,5.57-12.52,5.72-22.13Q1106.63,664.58,1090.11,666.4Zm5.79,29.2c-.41,1-.86,2.13-1.35,3.23q-6.4,12-14.15,18.38a54.25,54.25,0,0,1,2.91-7.46,77.26,77.26,0,0,1,4.44-8v.07a24.37,24.37,0,0,1,3.93-5,37.83,37.83,0,0,1,5.38-4.34C1096.7,693.53,1096.31,694.55,1095.9,695.6Zm18.23-2.45v.07l0,.15Zm0,0v.07l0,.15Zm-24-26.75q-16.54,6.69-23.59,17.88-11.83,19-10.08,34.31,3.81,13.1,12.28,13.78,19.88-4.71,33-29.7,5.57-12.52,5.72-22.13Q1106.63,664.58,1090.11,666.4Zm5.79,29.2c-.41,1-.86,2.13-1.35,3.23q-6.4,12-14.15,18.38a54.25,54.25,0,0,1,2.91-7.46,77.26,77.26,0,0,1,4.44-8v.07a24.37,24.37,0,0,1,3.93-5,37.83,37.83,0,0,1,5.38-4.34C1096.7,693.53,1096.31,694.55,1095.9,695.6Zm70.78,3.5,0,.22a102.71,102.71,0,0,0-4.06-28,95.18,95.18,0,0,0-9.53-20.92,87.86,87.86,0,0,0-13.79-17.15,70.17,70.17,0,0,0-7.48-4.73q-1.69-2.1-3.48-4.08t-3.71-3.83q-13.14-9.81-27.85-10.64h-.59c-1.27,0-2.63.13-4.07.25s-2.75.24-3.92.38a76.48,76.48,0,0,0-14,2.85,57.71,57.71,0,0,0-11.9,5.12q-19.17,13.36-29.85,28.48-3.93,5.53-6.36,9.68a62.8,62.8,0,0,0-3.48,6.55q-5.11,10.19-10.46,28.2a146,146,0,0,0-3.71,22.4,109.64,109.64,0,0,0,.21,20.85v0a83.77,83.77,0,0,0,2.58,13.2,76.1,76.1,0,0,0,9.78,21.41,52.48,52.48,0,0,0,16.43,14.87q15.08,18.54,37,18.17a144.15,144.15,0,0,0,16.75-4.42,50.88,50.88,0,0,0,11.42-5.32,119.86,119.86,0,0,0,15.53-10.33,172.64,172.64,0,0,0,15.6-13.85,161.83,161.83,0,0,0,18-22A84.47,84.47,0,0,0,1162,726.41a94.33,94.33,0,0,0,3.8-14.47A58.6,58.6,0,0,0,1166.68,699.1Zm-26.81,11.73q-5.55,17.32-26.22,38.81-14.89,14.8-29.49,22.92-7.54,5.09-25.24,8.69-18.81.29-31.68-16.93a67.83,67.83,0,0,1-10.75-30.42q-2-18.6,3.23-39.89,5.09-17.34,10.06-27,1.24-3.57,9-14.7,9.9-14,27.58-26.36,11.65-6.71,30.15-7.39,12.23.6,23.58,9.11,13.74,13.19,20.36,33.55a99.47,99.47,0,0,1,3.65,25.5Q1144.57,697,1139.87,710.83Zm-25.74-17.61,0,.15,0-.22Zm-24-26.82q-16.54,6.69-23.59,17.88-11.83,19-10.08,34.31,3.81,13.1,12.28,13.78,19.88-4.71,33-29.7,5.57-12.52,5.72-22.13Q1106.63,664.58,1090.11,666.4Zm5.79,29.2c-.41,1-.86,2.13-1.35,3.23q-6.4,12-14.15,18.38a54.25,54.25,0,0,1,2.91-7.46,77.26,77.26,0,0,1,4.44-8v.07a24.37,24.37,0,0,1,3.93-5,37.83,37.83,0,0,1,5.38-4.34C1096.7,693.53,1096.31,694.55,1095.9,695.6Zm-5.79-29.2q-16.54,6.69-23.59,17.88-11.83,19-10.08,34.31,3.81,13.1,12.28,13.78,19.88-4.71,33-29.7,5.57-12.52,5.72-22.13Q1106.63,664.58,1090.11,666.4Zm5.79,29.2c-.41,1-.86,2.13-1.35,3.23q-6.4,12-14.15,18.38a54.25,54.25,0,0,1,2.91-7.46,77.26,77.26,0,0,1,4.44-8v.07a24.37,24.37,0,0,1,3.93-5,37.83,37.83,0,0,1,5.38-4.34C1096.7,693.53,1096.31,694.55,1095.9,695.6Zm18.23-2.45v.07l0,.15Zm-24-26.75q-16.54,6.69-23.59,17.88-11.83,19-10.08,34.31,3.81,13.1,12.28,13.78,19.88-4.71,33-29.7,5.57-12.52,5.72-22.13Q1106.63,664.58,1090.11,666.4Zm5.79,29.2c-.41,1-.86,2.13-1.35,3.23q-6.4,12-14.15,18.38a54.25,54.25,0,0,1,2.91-7.46,77.26,77.26,0,0,1,4.44-8v.07a24.37,24.37,0,0,1,3.93-5,37.83,37.83,0,0,1,5.38-4.34C1096.7,693.53,1096.31,694.55,1095.9,695.6Zm18.23-2.45v.07l0,.15Z"/><path d="M1300.71,761.24q-4.89-42.76-5.57-84.76a823.61,823.61,0,0,1,3.4-87.21l-19.19-19.86q-17.79,5-29.21,6.35a167.72,167.72,0,0,1-35.56-.08A376.55,376.55,0,0,1,1158,656.77l14.66,12.64A230.92,230.92,0,0,1,1213.7,695q-.83,15.42-2.61,33.82T1206.63,769l14.67,12.64a106.87,106.87,0,0,0,20,4,90.11,90.11,0,0,0,18.88-.12,152,152,0,0,0,18.6-3.49q10.52-2.57,23.51-6.77Zm-85.34,1.53q7.64-62,6.93-103.41-6.21,8.6-15,18.9a160.23,160.23,0,0,0-35.87-24.11A317.13,317.13,0,0,0,1219,584.69q25.74,2.56,56.48-4.82A844,844,0,0,0,1279,756.42Q1238.67,769.41,1215.37,762.77Z"/><path d="M1386.11,595.64q-20.64,4.51-30.41,26-1.35,17,7,17.24,22.48-1.64,34.84-23Q1404,594,1386.11,595.64Zm10.51,79.72q-23.34,5.1-34.43,29.43-1.57,19.23,7.92,19.57,25.5-1.85,39.51-26.07Q1416.88,673.47,1396.62,675.36Zm0,0q-23.34,5.1-34.43,29.43-1.57,19.23,7.92,19.57,25.5-1.85,39.51-26.07Q1416.88,673.47,1396.62,675.36Zm.92-59.47q6.42-21.85-11.43-20.25-20.64,4.51-30.41,26-1.35,17,7,17.24Q1385.19,637.21,1397.54,615.89Zm84.78,68.63c-.07-.66-.18-1.46-.31-2.4s-.25-1.73-.37-2.39q-8.61-30.24-26.58-38.85c-.26-.35-.51-.67-.74-1s-.47-.58-.73-.88a79.69,79.69,0,0,0,10.35-23.64,70.51,70.51,0,0,0,1.52-25.13c0-.42-.12-1-.19-1.66s-.17-1.25-.27-1.72q-9-27.54-21.23-40.89t-25.62-17.66q-13.34-4.3-30.17-3l-.85.09q-38.69,7.93-67,43.76-23.28,34.54-20.1,62.31,3.38,29.55,19.44,42.82a113.5,113.5,0,0,0-12.08,28.41,72,72,0,0,0-2,26.26q2.36,20.51,17.92,38.77l13.12,13A79.05,79.05,0,0,0,1357.9,792q11.26,3.76,25.56,2.2c.74,0,1.55-.1,2.42-.17l2.42-.24q37.52-4.3,70.46-39.79Q1486.14,717.81,1482.32,684.52Zm-44.12,51q-32.76,35.34-70,37.53-24.72,2.82-39.51-12.6-32.48-35.52,1.88-88.65-19.11-9.92-22.68-41.15-2.8-24.46,18.5-56,26.19-33.23,62.41-40.73,45.49-3.84,53.83,41.89,4.8,30.88-19.44,57.65,25.65-1.08,36.1,35.32Q1464.94,700.11,1438.2,735.54Zm-41.58-60.18q-23.34,5.1-34.43,29.43-1.57,19.23,7.92,19.57,25.5-1.85,39.51-26.07Q1416.88,673.47,1396.62,675.36Zm.92-59.47q6.42-21.85-11.43-20.25-20.64,4.51-30.41,26-1.35,17,7,17.24Q1385.19,637.21,1397.54,615.89Zm-11.43-20.25q-20.64,4.51-30.41,26-1.35,17,7,17.24,22.48-1.64,34.84-23Q1404,594,1386.11,595.64Zm10.51,79.72q-23.34,5.1-34.43,29.43-1.57,19.23,7.92,19.57,25.5-1.85,39.51-26.07Q1416.88,673.47,1396.62,675.36Zm0,0q-23.34,5.1-34.43,29.43-1.57,19.23,7.92,19.57,25.5-1.85,39.51-26.07Q1416.88,673.47,1396.62,675.36Zm-10.51-79.72q-20.64,4.51-30.41,26-1.35,17,7,17.24,22.48-1.64,34.84-23Q1404,594,1386.11,595.64Z"/></g></svg>
